<svg width="20" height="20" viewBox="0 0 20 20" fill="none" xmlns="http://www.w3.org/2000/svg">
<path d="M4.8694 3.8069C7.70307 0.973222 12.2974 0.973222 15.1311 3.8069C17.9647 6.64057 17.9647 11.2349 15.1311 14.0686L14.1419 15.0468C13.4128 15.7623 12.4669 16.6823 11.3037 17.8069C10.5768 18.5097 9.42365 18.5097 8.6969 17.8067L5.78762 14.9768C5.42199 14.6178 5.11593 14.3151 4.8694 14.0686C2.03572 11.2349 2.03572 6.64057 4.8694 3.8069ZM14.2472 4.69078C11.9017 2.34526 8.0988 2.34526 5.75328 4.69078C3.40776 7.0363 3.40776 10.8392 5.75328 13.1847L6.99251 14.4076C7.67493 15.0754 8.53282 15.9091 9.5659 16.9082C9.80815 17.1425 10.1925 17.1426 10.4348 16.9083L13.2639 14.1571C13.6547 13.7735 13.9825 13.4493 14.2472 13.1847C16.5927 10.8392 16.5927 7.0363 14.2472 4.69078ZM10.0002 6.66577C11.3817 6.66577 12.5015 7.78564 12.5015 9.16707C12.5015 10.5485 11.3817 11.6683 10.0002 11.6683C8.61882 11.6683 7.49893 10.5485 7.49893 9.16707C7.49893 7.78564 8.61882 6.66577 10.0002 6.66577ZM10.0002 7.91577C9.30915 7.91577 8.74891 8.47599 8.74891 9.16707C8.74891 9.85816 9.30915 10.4183 10.0002 10.4183C10.6913 10.4183 11.2515 9.85816 11.2515 9.16707C11.2515 8.47599 10.6913 7.91577 10.0002 7.91577Z" fill="#FCFCFC"/>
</svg>