<svg width="20" height="20" viewBox="0 0 20 20" fill="none" xmlns="http://www.w3.org/2000/svg">
<path d="M4.8694 3.80665C7.70307 0.972978 12.2974 0.972978 15.1311 3.80665C17.9647 6.64033 17.9647 11.2347 15.1311 14.0683L14.1419 15.0466C13.4128 15.7621 12.4669 16.6821 11.3037 17.8067C10.5768 18.5095 9.42365 18.5094 8.6969 17.8065L5.78762 14.9766C5.42199 14.6176 5.11593 14.3148 4.8694 14.0683C2.03572 11.2347 2.03572 6.64033 4.8694 3.80665ZM14.2472 4.69054C11.9017 2.34501 8.0988 2.34501 5.75328 4.69054C3.40776 7.03605 3.40776 10.8389 5.75328 13.1844L6.99251 14.4073C7.67493 15.0752 8.53282 15.9088 9.5659 16.908C9.80815 17.1422 10.1925 17.1423 10.4348 16.9081L13.2639 14.1568C13.6547 13.7732 13.9825 13.4491 14.2472 13.1844C16.5927 10.8389 16.5927 7.03605 14.2472 4.69054ZM10.0002 6.66553C11.3817 6.66553 12.5015 7.78539 12.5015 9.16683C12.5015 10.5482 11.3817 11.6681 10.0002 11.6681C8.61882 11.6681 7.49893 10.5482 7.49893 9.16683C7.49893 7.78539 8.61882 6.66553 10.0002 6.66553ZM10.0002 7.91553C9.30915 7.91553 8.74891 8.47574 8.74891 9.16683C8.74891 9.85791 9.30915 10.4181 10.0002 10.4181C10.6913 10.4181 11.2515 9.85791 11.2515 9.16683C11.2515 8.47574 10.6913 7.91553 10.0002 7.91553Z" fill="#FCFCFC"/>
</svg>
