<svg width="24" height="25" viewBox="0 0 24 25" fill="none" xmlns="http://www.w3.org/2000/svg">
<path d="M5.84328 5.06789C9.24369 1.66748 14.7569 1.66748 18.1573 5.06789C21.5577 8.4683 21.5577 13.9815 18.1573 17.3819L16.9703 18.5558C16.0954 19.4144 14.9603 20.5184 13.5644 21.8679C12.6922 22.7113 11.3084 22.7112 10.4363 21.8677L6.94515 18.4718C6.50639 18.041 6.13912 17.6777 5.84328 17.3819C2.44287 13.9815 2.44287 8.4683 5.84328 5.06789ZM17.0966 6.12855C14.282 3.31392 9.71856 3.31392 6.90394 6.12855C4.08931 8.94317 4.08931 13.5066 6.90394 16.3212L8.39101 17.7887C9.20992 18.5901 10.2394 19.5905 11.4791 20.7895C11.7698 21.0706 12.231 21.0707 12.5218 20.7896L15.9167 17.4881C16.3856 17.0278 16.779 16.6388 17.0966 16.3212C19.9112 13.5066 19.9112 8.94317 17.0966 6.12855ZM12.0003 8.49854C13.658 8.49854 15.0018 9.84238 15.0018 11.5001C15.0018 13.1578 13.658 14.5016 12.0003 14.5016C10.3426 14.5016 8.99872 13.1578 8.99872 11.5001C8.99872 9.84238 10.3426 8.49854 12.0003 8.49854ZM12.0003 9.99854C11.171 9.99854 10.4987 10.6708 10.4987 11.5001C10.4987 12.3294 11.171 13.0016 12.0003 13.0016C12.8296 13.0016 13.5018 12.3294 13.5018 11.5001C13.5018 10.6708 12.8296 9.99854 12.0003 9.99854Z" fill="#651D1D"/>
</svg>