<svg width="20" height="20" viewBox="0 0 20 20" fill="none" xmlns="http://www.w3.org/2000/svg">
<path d="M4.37533 3.33301H15.6253C17.0695 3.33301 18.2497 4.46338 18.3294 5.88766L18.3337 6.04134V13.958C18.3337 15.4022 17.2032 16.5823 15.779 16.6621L15.6253 16.6663H4.37533C2.93113 16.6663 1.75095 15.5359 1.67128 14.1117L1.66699 13.958V6.04134C1.66699 4.59715 2.79737 3.41697 4.22164 3.33729L4.37533 3.33301ZM17.0837 7.81051L10.2914 11.3861C10.1352 11.4683 9.95291 11.48 9.78933 11.4213L9.70924 11.3861L2.91699 7.81134V13.958C2.91699 14.7232 3.50625 15.3507 4.25572 15.4115L4.37533 15.4163H15.6253C16.3905 15.4163 17.018 14.8271 17.0788 14.0776L17.0837 13.958V7.81051ZM15.6253 4.58301H4.37533C3.61018 4.58301 2.98267 5.17227 2.92183 5.92173L2.91699 6.04134V6.39884L10.0003 10.1268L17.0837 6.39801V6.04134C17.0837 5.2762 16.4944 4.64868 15.7449 4.58784L15.6253 4.58301Z" fill="#FCFCFC"/>
</svg>
