<svg width="20" height="20" viewBox="0 0 20 20" fill="none" xmlns="http://www.w3.org/2000/svg">
<path d="M4.37533 3.33325H15.6253C17.0695 3.33325 18.2497 4.46363 18.3294 5.8879L18.3337 6.04159V13.9583C18.3337 15.4024 17.2032 16.5826 15.779 16.6623L15.6253 16.6666H4.37533C2.93113 16.6666 1.75095 15.5362 1.67128 14.1119L1.66699 13.9583V6.04159C1.66699 4.59739 2.79737 3.41721 4.22164 3.33754L4.37533 3.33325ZM17.0837 7.81075L10.2914 11.3863C10.1352 11.4685 9.95291 11.4803 9.78933 11.4216L9.70924 11.3863L2.91699 7.81158V13.9583C2.91699 14.7234 3.50625 15.3509 4.25572 15.4118L4.37533 15.4166H15.6253C16.3905 15.4166 17.018 14.8273 17.0788 14.0778L17.0837 13.9583V7.81075ZM15.6253 4.58325H4.37533C3.61018 4.58325 2.98267 5.17251 2.92183 5.92198L2.91699 6.04159V6.39909L10.0003 10.127L17.0837 6.39825V6.04159C17.0837 5.27644 16.4944 4.64893 15.7449 4.58809L15.6253 4.58325Z" fill="#FCFCFC"/>
</svg>
