<svg width="62" height="60" viewBox="0 0 62 60" fill="none" xmlns="http://www.w3.org/2000/svg">
<g clip-path="url(#clip0_351_4712)">
<path d="M6.54395 45.5359C6.54395 45.5359 11.0935 47.0187 14.0063 46.881C16.9191 46.7392 23.0364 45.7141 24.8635 45.386C26.6946 45.0619 31.0294 44.993 35.2954 46.3016C39.5613 47.6102 46.817 46.6541 48.8831 45.5278C48.1823 47.1848 46.5091 48.8945 46.3916 49.0647C46.2741 49.2349 46.1567 49.5792 46.7805 50.1019C47.4044 50.6245 48.9803 52.4234 48.9803 52.4234C48.9803 52.4234 46.1769 52.9663 42.6402 53.0432C39.0994 53.1202 32.3825 51.6698 29.7047 51.2403C27.0268 50.8109 21.42 52.0709 18.9649 52.5044C16.5059 52.9379 10.4534 53.4484 6.64117 52.2573C8.14012 50.7218 9.12051 49.7575 9.12457 49.2956C9.13267 48.8378 7.60536 47.7318 6.54395 45.5359Z" fill="#FCFCFC"/>
<path d="M33.4068 3.30326C33.4068 3.30326 33.6256 4.02442 34.4277 4.03253C35.2258 4.04063 37.5674 3.77729 38.2115 5.04945C38.8557 6.32161 38.6612 8.33113 37.4864 8.74843C36.3115 9.16573 35.3797 8.23795 35.5013 7.37904C35.6228 6.52013 34.2008 6.35807 34.0469 7.30611C33.8929 8.25415 34.3912 9.66406 36.3034 9.88689C38.2115 10.1097 39.9981 8.48914 40.4924 7.63428C40.9866 6.77942 41.3715 5.43028 43.0811 5.73819C44.7907 6.04205 45.0743 10.207 43.8103 11.1104C42.5463 12.018 39.8806 13.8695 37.065 12.103C34.4966 10.4946 33.2974 10.7255 32.6411 10.6648C31.9281 10.6 30.652 9.40882 30.1172 8.71602C29.5825 8.01917 28.9586 7.55325 27.1639 7.53299C25.3652 7.51274 23.7001 7.69505 21.9014 5.29253C20.0986 2.89001 20.289 0.00537109 20.289 0.00537109C20.289 0.00537109 22.2174 3.93124 24.0647 4.67266C25.9121 5.41003 26.7952 4.38095 26.2524 3.08043C25.7095 1.78396 24.0931 0.576628 24.0931 0.576628C24.0931 0.576628 26.2564 0.621194 27.65 2.53348C29.0437 4.44578 30.1213 5.29658 30.81 5.04539C31.4987 4.7942 30.0565 3.48558 30.4089 2.58615C30.7816 3.75298 31.2759 3.5423 32.2441 4.49034C32.5885 4.82661 33.7228 4.83067 33.4554 4.28777C33.1597 3.68815 33.4068 3.30326 33.4068 3.30326Z" fill="#FCFCFC"/>
<path d="M20.459 5.40186C20.459 5.40186 22.8006 8.10013 24.6479 8.46476C26.4993 8.8294 27.9902 7.89756 29.6026 9.43712C31.2149 10.9767 31.9766 11.5317 33.1757 11.5722C34.3749 11.6128 35.7361 12.4595 36.5868 12.9295C37.4376 13.3994 40.3423 13.9748 41.4847 13.7843C42.6272 13.5939 43.8952 12.6904 44.4259 13.6709C44.9566 14.6554 44.3327 17.1754 40.7879 17.6818C41.7683 16.5434 41.898 15.3077 40.8406 15.2105C39.7873 15.1132 37.8873 16.6163 36.9717 16.9809C36.0561 17.3456 34.3141 17.3537 34.3141 17.3537C34.3141 17.3537 36.206 16.511 36.0723 15.6197C35.9386 14.7283 33.8928 13.9869 32.884 14.781C31.8753 15.5751 30.7247 16.5677 28.7923 16.0005C29.6674 15.6642 30.1211 14.546 29.9874 13.6831C29.8537 12.8201 29.2906 11.4912 27.2691 11.0091C26.317 10.7822 25.0652 10.5148 23.6149 9.36419C22.598 8.5701 20.459 5.57607 20.459 5.40186Z" fill="#FCFCFC"/>
<path d="M18.6035 8.42822C18.6035 8.42822 20.8641 10.3486 23.1692 10.9482C25.4744 11.5479 27.3055 11.4344 28.3953 13.0428C29.1812 14.2056 27.9659 16.0855 25.0449 14.4447C22.124 12.8038 19.8027 10.8551 18.6035 8.42822Z" fill="#FCFCFC"/>
<path d="M19.7711 16.6003C19.7711 16.6003 19.208 13.1484 17.8995 11.6251C16.5869 10.1017 15.1365 9.70062 15.1365 9.70062C15.1365 9.70062 15.5943 10.9566 15.0798 11.2078C14.5653 11.3739 14.0103 11.1551 13.3743 10.7175C12.7382 10.28 10.5951 10.4299 10.5951 10.4299C10.5951 10.4299 11.7862 11.2199 11.3527 11.6899C10.9192 12.1599 8.87742 11.0173 7.2772 12.5934C9.03137 12.484 9.02732 12.9985 8.76399 13.5131C8.50066 14.0276 6.52367 14.9959 6.08614 15.6401C5.65266 16.2802 4.7614 15.3686 5.07739 14.0357C5.38933 12.7028 6.52772 10.6041 7.26099 10.0085C7.99426 9.41297 8.08744 8.55406 7.88488 7.81669C7.2772 8.8012 6.70598 9.95991 6.14691 10.2111C5.58784 10.4663 5.24754 10.0734 5.72558 9.51831C6.20363 8.96325 6.04158 7.75592 5.4501 7.31836C5.31236 8.09219 4.90724 10.0693 4.35222 10.1503C3.79316 10.2314 3.58655 9.75329 3.5906 9.19419C3.59465 8.63508 3.21789 8.11245 2.36308 7.93013C2.78036 8.79714 2.9424 9.70467 2.76415 10.6081C2.58185 11.5116 2.51298 14.2261 2.63451 14.8298C2.75605 15.4334 2.31852 16.3329 1.84048 16.9325C1.36243 17.5321 0.787162 19.2904 0.0214844 18.938C1.17203 19.3796 1.73514 18.8286 1.90935 18.31C2.0876 17.7954 2.73984 16.7664 3.50957 16.9041C4.2793 17.0419 4.39274 18.4234 3.52173 19.8779C2.65072 21.3324 -3.66917 36.3066 11.7335 46.1962C10.3237 44.4581 4.56694 38.4498 4.16992 33.0411C3.76885 27.6365 4.87078 25.9227 6.24414 25.5378C7.6175 25.1489 8.01046 25.8457 7.31366 26.9275C6.61685 28.0132 6.58444 28.3576 6.69382 28.8154C6.92879 28.3009 7.36227 27.7013 7.82006 27.3893C8.27784 27.0774 8.66271 26.0199 9.23798 25.4487C9.81325 24.8815 11.2231 23.978 11.7659 23.897C12.3088 23.8159 13.0299 23.0178 13.6619 22.8274C14.2898 22.6329 14.5451 22.8071 14.5451 22.8071C14.5451 22.8071 14.067 22.0819 13.354 22.2196C12.641 22.3574 12.1467 23.2123 11.5755 23.0624C11.7254 22.487 12.1589 21.8023 12.7342 21.381C13.3094 20.9556 13.7753 20.1858 14.3709 20.1939C14.3709 20.1939 13.8361 19.6429 13.3175 19.9549C12.799 20.2668 12.2237 20.9758 12.0212 21.1744C11.8186 21.3729 11.3 21.7983 11.219 21.6524C11.1339 21.5066 11.0853 20.6153 11.5796 20.0197C12.0698 19.4201 12.0779 18.7597 12.5073 18.6503C11.7092 18.5571 11.3932 18.8691 11.0691 19.8698C10.745 20.8705 10.3683 21.2716 9.9915 21.8429C9.61474 22.4141 8.49256 23.4634 7.62965 23.7714C6.77079 24.0793 5.83902 23.1474 6.56823 21.7213C7.29745 20.2912 9.6512 17.6131 12.5316 16.6084C14.6788 15.8548 18.2114 15.8102 19.7711 16.6003Z" fill="#FCFCFC"/>
<path d="M11.7289 46.192C11.7289 46.192 12.5716 46.2365 13.2562 46.2446C13.9409 46.2527 16.8537 46.1758 16.8537 46.1758C16.8537 46.1758 16.5418 45.5275 15.9422 45.3047C15.3466 45.0819 14.7997 44.1298 14.6782 43.437C14.5567 42.7442 14.2488 41.6422 14.0381 41.3626C13.8274 41.079 13.8112 40.4753 13.8153 40.2404C13.8193 40.0013 13.0456 40.0823 12.8065 40.6374C12.5635 41.1965 12.3933 41.2816 12.2029 41.1925C12.0125 41.1033 11.9153 40.135 11.9153 40.135C11.9153 40.135 11.3522 40.7752 11.3481 41.3586C11.3441 41.9379 11.66 42.3309 11.6155 42.5011C11.5709 42.6753 10.9065 42.7725 10.7809 42.3633C10.6554 41.9541 10.5136 41.3059 10.5136 41.3059C10.5136 41.3059 9.89777 42.6793 10.0882 43.1128C10.2745 43.5464 11.1536 43.599 11.8545 43.9312C12.5594 44.2635 13.1509 44.9563 13.2522 45.5194C13.3535 46.0785 13.0334 45.9894 12.6931 45.8152C12.3528 45.6369 10.8214 44.5025 10.0193 43.5869C9.21717 42.6753 4.75679 37.4205 4.07619 31.4365C2.34632 33.0247 3.79666 36.432 3.79666 36.432C3.79666 36.432 6.32461 40.366 6.54743 40.7711C6.77024 41.1762 8.85256 44.0123 8.85256 44.0123L11.7289 46.192Z" fill="#FCFCFC"/>
<path d="M14.334 31.5986C14.334 31.5986 14.3502 30.2778 15.1483 30.1117C15.9504 29.9496 16.6391 29.4959 16.7607 28.8071C16.8822 28.1184 17.1212 27.0285 17.7005 26.4046C18.2758 25.7807 19.3737 24.6422 19.7221 24.1844C20.0705 23.7306 20.4067 24.075 20.6458 22.9892C20.8848 21.8994 21.2859 21.79 21.8571 21.794C22.4283 21.8021 22.3189 21.3403 22.72 21.1134C23.1211 20.8865 23.8057 21.0081 24.7699 21.5955C25.7341 22.1789 26.2567 21.2674 27.0426 22.5395C27.8286 23.8117 27.31 24.0953 27.8205 24.4437C28.3309 24.7921 28.7846 24.857 28.493 25.5984C28.2013 26.3438 27.4518 26.907 27.1034 27.4215C26.755 27.9361 26.4592 29.0219 26.8522 29.4878C27.2452 29.9496 27.3991 31.5054 27.2209 32.5385C27.0386 33.5717 27.2047 34.2037 26.285 34.5967C25.3695 34.9897 24.3364 35.4961 23.8746 35.7756C23.4168 36.0593 18.2272 35.7149 18.2272 35.7149C18.2272 35.7149 17.8261 35.7675 17.0888 35.3583C16.3515 34.9492 14.8849 33.438 14.6581 33.0328C14.4393 32.6317 14.3867 32.1172 14.334 31.5986Z" fill="#FCFCFC"/>
<path d="M30.2152 24.8122C30.2192 24.4111 29.9397 23.775 29.5467 23.4266C29.1497 23.0782 28.9228 22.904 29.4454 22.276C29.964 21.648 30.0896 20.7891 30.7175 20.7364C31.3455 20.6838 33.2333 20.3597 34.1286 21.7493C35.028 23.139 35.818 24.0668 36.8956 24.5367C37.9732 25.0067 40.7078 25.7279 42.8023 27.2998C44.8967 28.8718 45.6867 29.6861 45.6827 30.1439C45.6786 30.6018 45.1601 30.8854 44.9291 31.2865C44.6942 31.6876 44.7468 32.2021 45.1439 32.4978C45.5409 32.7896 45.7151 32.4452 45.7678 32.7936C45.8204 33.138 45.8164 33.4824 45.075 33.4175C44.3336 33.3527 43.4748 33.5148 42.4458 33.9645C41.4127 34.4142 40.3189 35.4352 40.1447 35.7228C39.9705 36.0064 31.3536 35.9173 31.3536 35.9173C31.3536 35.9173 31.309 34.6532 30.4623 33.9523C29.6115 33.2555 29.6318 31.7038 29.8668 30.7274C30.1058 29.755 30.2314 28.6044 30.2395 27.6847C30.2516 26.7691 30.2152 24.8122 30.2152 24.8122Z" fill="#FCFCFC"/>
<path d="M15.4316 35.9174C15.4316 35.9174 33.2975 35.3624 43.6199 35.9296C36.1414 36.3104 20.8481 36.2659 15.4316 35.9174Z" fill="#FCFCFC"/>
<path d="M19.7383 39.0694C19.7383 39.0694 32.609 38.4617 40.0429 38.9965C34.6548 39.3976 23.6396 39.3976 19.7383 39.0694Z" fill="#FCFCFC"/>
<path d="M22.5859 42.3753C22.5859 42.3753 31.8105 41.719 37.1338 42.2416C33.269 42.663 25.3772 42.6954 22.5859 42.3753Z" fill="#FCFCFC"/>
<path d="M5.25977 42.7646C5.25977 42.7646 6.43462 44.8471 6.8924 45.0213C7.80392 45.3171 9.84978 45.7992 9.84978 45.7992L5.25977 42.7646Z" fill="#FCFCFC"/>
<path d="M8.64605 53.3592C9.71962 53.5416 12.4744 54.0196 15.76 53.5618C19.9894 52.9744 26.5645 51.6657 28.9021 51.8075C31.2396 51.9493 34.0309 52.6097 36.4778 53.1526C38.9248 53.6955 42.2346 53.6712 42.2346 53.6712C42.2346 53.6712 38.8519 55.1297 36.968 55.3971C35.0802 55.6645 34.1687 55.5957 34.6183 56.175C35.068 56.7544 35.7567 56.4181 35.7567 56.4181C35.7567 56.4181 35.5177 57.5647 33.407 57.3702C31.2964 57.1757 30.3322 56.649 30.5509 57.512C30.7697 58.375 31.3936 58.7274 31.3936 58.7274C31.3936 58.7274 27.9784 57.7713 27.1884 57.1879C26.3944 56.6045 25.5436 56.1345 25.649 56.8273C25.7543 57.5161 26.3174 58.2129 26.3174 58.2129C26.3174 58.2129 24.5551 57.5606 23.7125 56.4627C22.8698 55.3607 21.3993 53.8535 20.2001 54.0683C19.0009 54.287 19.1063 55.0933 20.0137 55.5025C20.9212 55.9157 21.3425 55.5308 22.3351 56.1467C23.3276 56.7625 22.7321 57.8159 22.7321 57.8159C22.7321 57.8159 22.327 56.9205 21.9421 57.0623C21.5572 57.2 21.1076 57.5687 20.2973 57.4593C19.4871 57.3499 18.3203 56.807 17.3926 56.8557C16.4649 56.9043 14.8728 57.6335 14.4271 58.1764C13.9774 58.7153 13.3495 58.8814 12.7783 58.9624C12.2071 59.0435 11.7533 59.9429 11.7533 59.9429C11.7533 59.9429 11.2429 59.6512 11.1497 58.9017C11.0565 58.1521 11.8344 57.5728 12.2192 57.4634C12.6041 57.354 13.0376 56.9975 13.0092 56.8111C12.9808 56.6247 12.357 56.5315 12.0126 56.7584C11.6683 56.9853 11.1538 57.1352 10.696 56.9894C10.2422 56.8395 10.303 56.3087 9.81685 56.3209C9.33071 56.329 8.91343 56.7422 8.91343 56.7422C8.91343 56.7422 9.09574 55.7982 9.71152 55.5146C10.3273 55.2351 10.8256 55.4822 11.2672 55.5308C11.7088 55.5794 12.041 55.2796 11.9437 55.0203C11.8465 54.7611 11.5629 54.4856 11.0646 54.5382C10.5663 54.5909 9.7966 54.5949 9.50086 54.206C9.20512 53.8171 8.90938 53.6672 8.59339 53.7077C8.27739 53.7482 8.03432 54.0602 8.03432 54.0602C8.03432 54.0602 7.91684 53.2337 8.64605 53.3592Z" fill="#FCFCFC"/>
<path d="M46.9912 49.3399C46.9912 49.3399 48.3322 47.9746 48.8993 46.8159C51.1842 45.2885 54.5872 43.0399 55.2881 41.4558C55.9889 39.8676 56.702 37.376 57.1314 36.9951C57.1962 38.8507 57.2651 40.7468 55.7418 43.1007C54.2186 45.4546 52.5333 47.2048 51.0222 48.4365C49.5111 49.6681 48.2187 50.5189 48.2187 50.5189L46.9912 49.3399Z" fill="#FCFCFC"/>
<path d="M55.2669 39.5194C55.2669 39.5194 54.8577 37.7935 54.5417 37.4208C54.2257 37.0521 53.7477 35.7111 53.5857 34.8684C53.4236 34.0257 53.5127 33.8352 53.5127 33.8352C53.5127 33.8352 53.8895 34.6374 54.3108 35.0952C54.7362 35.5531 55.1818 35.6219 55.0036 34.2849C54.8253 32.948 54.0637 32.0769 54.0313 31.1086C53.9989 30.1403 54.169 30.0957 54.169 30.0957C54.169 30.0957 54.4607 30.8534 54.8172 31.4165C55.1737 31.9797 56.0893 32.4415 56.4134 32.1863C56.7375 31.931 56.8793 30.5738 56.8631 30.0147C56.8469 29.4556 57.0656 27.1301 57.3371 25.7971C57.6085 24.4642 57.7138 22.6978 57.7138 22.6978C57.7138 22.6978 58.3296 29.0829 58.3175 30.2456C58.3053 31.4084 58.3782 32.5307 58.7185 32.794C59.0588 33.0573 59.7313 32.243 59.8853 31.7933C60.0392 31.3436 60.6429 30.8736 60.6429 30.8736C60.6429 30.8736 60.3512 32.2916 60.4038 33.11C60.4606 33.9284 59.6989 35.1074 59.6503 35.7111C59.6017 36.3147 60.0716 36.339 60.5011 35.9987C60.9345 35.6584 61.9473 34.8724 61.9473 34.8724C61.9473 34.8724 61.526 36.3998 61.0196 37.514C60.5173 38.6281 58.9049 40.1353 57.572 40.6822C57.884 38.4134 57.8759 35.7516 57.3452 35.3383C56.8145 34.921 56.3769 37.4208 55.9637 38.1055C55.5505 38.7902 55.2669 39.5194 55.2669 39.5194Z" fill="#FCFCFC"/>
<path fill-rule="evenodd" clip-rule="evenodd" d="M42.6766 49.8223L41.9069 49.1579C41.8542 49.1133 41.8096 49.085 41.7813 49.0769C41.7448 49.0647 41.684 49.0607 41.603 49.0607C41.4612 49.0607 41.3599 49.0688 41.3032 49.0769C41.1331 49.1012 41.052 49.166 41.052 49.2632C41.052 49.2916 41.0642 49.32 41.0804 49.3402C41.1007 49.3605 41.1331 49.3848 41.1776 49.405C41.2181 49.4253 41.2465 49.4456 41.2627 49.4658C41.283 49.4861 41.2951 49.5185 41.3073 49.563C41.3397 49.6846 41.3559 49.8791 41.3599 50.1424C41.364 50.3895 41.3559 50.58 41.3397 50.7137C41.3316 50.7866 41.3032 50.8393 41.2546 50.8676C41.2019 50.9 41.1695 50.9243 41.1574 50.9405C41.1452 50.9568 41.1371 50.9811 41.1371 51.0175C41.1371 51.0823 41.1736 51.135 41.2506 51.1715C41.3275 51.2079 41.4329 51.2241 41.5706 51.2241C41.8744 51.2201 42.0243 51.1472 42.0243 51.0054C42.0203 50.9527 41.9879 50.9081 41.919 50.8757C41.8704 50.8514 41.838 50.8149 41.8218 50.7623C41.8056 50.7096 41.7934 50.6124 41.7934 50.4706C41.7894 50.3004 41.8218 50.2113 41.8825 50.2113C41.9231 50.2113 41.9757 50.2396 42.0405 50.2964L42.9561 51.1067C42.9635 51.1129 42.9707 51.119 42.9775 51.1248C43.0188 51.16 43.0487 51.1853 43.0695 51.1958C43.0898 51.2079 43.1182 51.216 43.1506 51.216C43.2235 51.216 43.2762 51.1674 43.3005 51.0661C43.3207 50.9851 43.3329 50.8555 43.3288 50.6731C43.3288 50.5971 43.3275 50.5303 43.3264 50.4726C43.3255 50.4288 43.3248 50.3903 43.3248 50.3571L43.3207 49.8548C43.3207 49.6643 43.3329 49.5387 43.3612 49.4699C43.3693 49.4496 43.3774 49.4375 43.3896 49.4253C43.3977 49.4131 43.4179 49.401 43.4504 49.3888C43.5273 49.3524 43.5638 49.2997 43.5638 49.2349C43.5638 49.1538 43.5152 49.1012 43.422 49.0728C43.3612 49.0566 43.2559 49.0485 43.102 49.0485C42.9804 49.0485 42.8994 49.0526 42.8508 49.0647C42.7333 49.089 42.6766 49.1457 42.6766 49.2308C42.6766 49.2673 42.6847 49.2956 42.7009 49.3159C42.7171 49.3362 42.7454 49.3564 42.786 49.3767C42.8346 49.401 42.867 49.4334 42.8832 49.482C42.8994 49.5266 42.9075 49.6157 42.9075 49.7454C42.9116 49.8588 42.8832 49.9155 42.8305 49.9155C42.7981 49.9155 42.7495 49.8831 42.6766 49.8223ZM40.096 48.2544C40.023 48.2018 39.9704 48.1774 39.938 48.1734C39.8691 48.1653 39.7516 48.218 39.5855 48.3152C39.4964 48.3719 39.4316 48.4165 39.3951 48.4529C39.3586 48.4894 39.3384 48.5259 39.3343 48.5583C39.3303 48.5947 39.3384 48.6272 39.3586 48.6515C39.3789 48.6798 39.4073 48.692 39.4397 48.696C39.4842 48.7001 39.5653 48.6798 39.6787 48.6312C39.7557 48.5988 39.8043 48.5785 39.8245 48.5745C39.8448 48.5704 39.8691 48.5664 39.8974 48.5704C39.9461 48.5745 40.0149 48.6069 40.1122 48.6636C40.2337 48.7406 40.3147 48.7771 40.3552 48.7811C40.3836 48.7811 40.412 48.773 40.4363 48.7528C40.4606 48.7325 40.4727 48.7041 40.4768 48.6758C40.4768 48.6474 40.4687 48.615 40.4444 48.5785C40.4201 48.5461 40.3755 48.4975 40.3107 48.4327C40.2378 48.3638 40.1648 48.303 40.096 48.2544ZM41.0034 47.9668C40.9346 47.9344 40.8535 47.9101 40.7604 47.9019C40.6874 47.8938 40.6267 47.8979 40.5781 47.91C40.5335 47.9222 40.5092 47.9384 40.5051 47.9668C40.5051 47.9749 40.5051 47.983 40.5092 47.9911C40.5173 48.0113 40.5213 48.0275 40.5213 48.0356C40.5209 48.037 40.5205 48.0383 40.52 48.0397C40.5163 48.0512 40.5119 48.0649 40.5011 48.0721C40.4991 48.0734 40.4967 48.0751 40.4938 48.077C40.4792 48.087 40.4527 48.1051 40.412 48.1288C40.3552 48.1653 40.3228 48.1896 40.3107 48.2018C40.2985 48.2139 40.2945 48.2342 40.2904 48.2625C40.2823 48.3395 40.3309 48.3841 40.4363 48.3922C40.6226 48.4084 40.7968 48.3679 40.9629 48.2625C41.052 48.2058 41.1007 48.1531 41.1088 48.1086C41.1128 48.0843 41.1047 48.06 41.0845 48.0316C41.0642 48.0073 41.0358 47.983 41.0034 47.9668ZM39.8164 50.1343L39.5166 50.1059C39.468 50.1019 39.4478 50.0857 39.4518 50.0614C39.4518 50.0411 39.4802 49.9803 39.5328 49.8791C39.5555 49.8305 39.573 49.7974 39.5812 49.782C39.5832 49.7781 39.5847 49.7753 39.5855 49.7737C39.6179 49.7089 39.6503 49.6765 39.6868 49.6805C39.707 49.6846 39.7273 49.6967 39.7435 49.717C39.7597 49.7413 39.784 49.7818 39.8124 49.8466C39.8731 49.9844 39.9056 50.0735 39.9015 50.1059C39.9015 50.1302 39.8691 50.1384 39.8164 50.1343ZM40.8252 50.661L40.5943 50.0128C40.3957 49.4577 40.2378 49.1174 40.1041 48.9877C40.019 48.8986 39.9218 48.8459 39.8205 48.8378C39.7111 48.8257 39.6179 48.854 39.5409 48.9189C39.5045 48.9472 39.4802 48.9796 39.468 49.012C39.4559 49.0445 39.4437 49.1052 39.4356 49.1944C39.4275 49.2794 39.4073 49.3605 39.3708 49.4456C39.3384 49.5306 39.2736 49.6562 39.1763 49.8223L38.9171 50.2761C38.8401 50.4098 38.7834 50.4949 38.7469 50.5354C38.7104 50.5759 38.6578 50.6043 38.5889 50.6205C38.5484 50.6326 38.516 50.6448 38.4998 50.661C38.4836 50.6772 38.4755 50.7015 38.4714 50.7339C38.4633 50.8068 38.4957 50.8555 38.5646 50.8838C38.6416 50.9122 38.7591 50.9365 38.9252 50.9527C39.2128 50.9811 39.3627 50.9324 39.3748 50.8109C39.3829 50.7582 39.3546 50.7177 39.2938 50.6934C39.288 50.6908 39.2824 50.6882 39.2771 50.6859C39.2422 50.67 39.2198 50.6599 39.2128 50.6529C39.2047 50.6448 39.2006 50.6286 39.2047 50.6083C39.2047 50.58 39.2128 50.5557 39.229 50.5313C39.2452 50.503 39.2614 50.4868 39.2776 50.4787C39.306 50.4665 39.387 50.4665 39.5207 50.4787C39.6827 50.4908 39.8043 50.5111 39.8934 50.5313C39.9744 50.5516 40.0149 50.5962 40.0068 50.665C40.0068 50.7056 39.9785 50.7299 39.9299 50.742C39.8853 50.7542 39.8529 50.7663 39.8367 50.7825C39.8205 50.7987 39.8124 50.819 39.8083 50.8514C39.8043 50.8919 39.8164 50.9243 39.8448 50.9567C39.8731 50.9892 39.9137 51.0094 39.9623 51.0256C40.0717 51.054 40.2378 51.0783 40.4687 51.1026C40.6712 51.1188 40.8171 51.1188 40.9102 51.0945C41.0034 51.0702 41.052 51.0175 41.0602 50.9446C41.0683 50.8838 41.0358 50.8433 40.9629 50.8231C40.9265 50.8149 40.8981 50.7987 40.8819 50.7785C40.8657 50.7623 40.8454 50.7218 40.8252 50.661ZM38.3499 49.8791L38.4066 49.5063C38.4471 49.2835 38.4714 49.1538 38.4917 49.1133C38.5038 49.0769 38.5403 49.0526 38.597 49.0283C38.6537 49.008 38.6861 48.9918 38.7023 48.9796C38.7185 48.9675 38.7267 48.9472 38.7307 48.9189C38.7388 48.8621 38.7104 48.8135 38.6456 48.773C38.5808 48.7365 38.4674 48.7041 38.3134 48.6798C38.1554 48.6555 38.0379 48.6515 37.961 48.6677C37.884 48.6879 37.8394 48.7244 37.8313 48.7852C37.8273 48.8135 37.8313 48.8419 37.8475 48.8621C37.8637 48.8865 37.8962 48.9108 37.9448 48.9432C37.9974 48.9796 38.0217 49.0202 38.0258 49.0647C38.0258 49.1093 38.0096 49.2592 37.9772 49.5185L37.9245 49.8548C37.9124 49.9398 37.8962 50.0047 37.8799 50.0533C37.8637 50.0978 37.8354 50.1384 37.803 50.1748C37.7584 50.2194 37.7017 50.2518 37.6328 50.2721C37.564 50.2923 37.487 50.2964 37.406 50.2842C37.2804 50.2639 37.1831 50.2113 37.1143 50.1221C37.0292 50.0128 37.0008 49.875 37.0332 49.7008C37.0483 49.6176 37.062 49.5427 37.0742 49.476C37.1047 49.3087 37.1258 49.1933 37.1345 49.1295C37.1467 49.0445 37.1629 48.9837 37.1791 48.9472C37.1953 48.9108 37.2196 48.8864 37.2561 48.8783C37.3128 48.8621 37.3452 48.85 37.3533 48.8459C37.3857 48.8257 37.406 48.7933 37.4141 48.7528C37.4262 48.6677 37.3817 48.6028 37.2763 48.5623C37.171 48.5218 37.0332 48.4854 36.8671 48.461C36.7173 48.4367 36.5836 48.4286 36.4701 48.4327C36.4134 48.4327 36.3688 48.4489 36.3283 48.4732C36.2919 48.4975 36.2676 48.5299 36.2635 48.5704C36.2554 48.6231 36.2797 48.6798 36.3405 48.7325C36.381 48.769 36.4013 48.8054 36.4094 48.8378C36.4175 48.8743 36.4134 48.931 36.4013 49.0161C36.3988 49.0386 36.3916 49.0782 36.3817 49.1329C36.3756 49.1667 36.3685 49.2062 36.3607 49.2511C36.3283 49.4212 36.3081 49.5428 36.2959 49.6157C36.2676 49.8021 36.2635 49.952 36.2838 50.0573C36.304 50.1627 36.3526 50.2599 36.4377 50.3531C36.6079 50.5394 36.855 50.6569 37.1791 50.7056C37.3654 50.7339 37.5356 50.7339 37.6895 50.7015C37.9488 50.6529 38.1271 50.5354 38.2284 50.349C38.2729 50.2599 38.3175 50.1019 38.3499 49.8791ZM35.6234 48.2787L34.8294 48.141C34.7848 48.1329 34.7443 48.1248 34.716 48.1045C34.6835 48.0964 34.639 48.0802 34.5863 48.06C34.562 48.0519 34.5377 48.0437 34.5174 48.0397C34.4445 48.0235 34.3595 48.064 34.2663 48.1531C34.2055 48.2058 34.1569 48.2706 34.1164 48.3395C34.0759 48.4084 34.0516 48.4773 34.0394 48.538C34.0273 48.6028 34.0354 48.6555 34.0637 48.7041C34.088 48.7528 34.1326 48.7811 34.1852 48.7892C34.2339 48.7973 34.2865 48.7892 34.3432 48.7568C34.3919 48.7325 34.4607 48.6758 34.5458 48.5826C34.5944 48.534 34.6349 48.5097 34.6754 48.5178C34.7079 48.5218 34.7281 48.5461 34.7362 48.5866C34.7443 48.6272 34.7403 48.692 34.7241 48.7852C34.7043 48.9114 34.6731 49.0607 34.6378 49.2294L34.6349 49.243C34.5985 49.4212 34.5661 49.5468 34.5458 49.6238C34.5215 49.713 34.5012 49.7697 34.481 49.798C34.4607 49.8264 34.4324 49.8426 34.3919 49.8466C34.3777 49.8484 34.3647 49.85 34.3529 49.8514C34.3109 49.8565 34.2848 49.8597 34.2784 49.8629C34.2379 49.8831 34.2136 49.9115 34.2055 49.952C34.1893 50.029 34.2298 50.0938 34.327 50.1465C34.4405 50.2072 34.6228 50.2599 34.8699 50.3045C35.0725 50.3369 35.2264 50.349 35.3317 50.3288C35.433 50.3085 35.4938 50.2639 35.5059 50.191C35.51 50.1546 35.5059 50.1262 35.4897 50.1019C35.4735 50.0776 35.4371 50.0492 35.3885 50.0168C35.3439 49.9844 35.3155 49.9479 35.3034 49.9074C35.2912 49.8669 35.2912 49.798 35.3074 49.7129L35.4533 48.8621C35.4695 48.7892 35.4857 48.7406 35.5059 48.7122C35.5302 48.6839 35.5586 48.6717 35.5951 48.6798C35.6234 48.6839 35.6437 48.696 35.6599 48.7203C35.6761 48.7446 35.6963 48.7892 35.7166 48.8581C35.7409 48.9351 35.7733 48.9918 35.8057 49.0283C35.8381 49.0647 35.8827 49.089 35.9354 49.0971C35.9921 49.1052 36.0448 49.1012 36.0893 49.0769C36.1501 49.0445 36.1865 48.9877 36.2027 48.8986C36.223 48.773 36.2068 48.6393 36.1501 48.5056C36.0934 48.3719 36.0245 48.299 35.9435 48.2828C35.9232 48.2787 35.8949 48.2787 35.8624 48.2828C35.7895 48.2909 35.7085 48.2909 35.6234 48.2787ZM32.581 47.7723C32.4554 47.6832 32.3176 47.6264 32.1718 47.5981C32.0179 47.5697 31.8599 47.5738 31.6857 47.6224C31.479 47.671 31.3008 47.7682 31.1509 47.906C30.9807 48.064 30.8754 48.2585 30.8349 48.4813C30.8025 48.6717 30.8227 48.8662 30.9038 49.0647C30.9848 49.2673 31.1144 49.4293 31.2927 49.5509C31.4466 49.6562 31.6087 49.7251 31.7748 49.7535C31.9368 49.7818 32.0948 49.7737 32.2569 49.7292C32.3257 49.7089 32.3784 49.7008 32.4189 49.7008C32.4878 49.7008 32.5324 49.6927 32.5567 49.6805C32.6134 49.6481 32.666 49.5955 32.7147 49.5306C32.7633 49.4658 32.7916 49.401 32.8038 49.3443C32.8119 49.2997 32.8078 49.2551 32.7876 49.2187C32.7673 49.1822 32.743 49.162 32.7066 49.1538C32.6822 49.1498 32.6498 49.162 32.6053 49.1903C32.5526 49.2268 32.4837 49.2511 32.3987 49.2632C32.3176 49.2754 32.2326 49.2754 32.1515 49.2592C31.9287 49.2187 31.7788 49.0931 31.6938 48.8783C31.633 48.7163 31.6168 48.5502 31.6492 48.376C31.6735 48.2504 31.7221 48.1531 31.795 48.0883C31.872 48.0235 31.9571 47.9992 32.0624 48.0194C32.1677 48.0397 32.265 48.0924 32.3501 48.1774C32.3825 48.2139 32.4108 48.2504 32.4311 48.2909C32.4513 48.3314 32.4756 48.3922 32.504 48.4813C32.5243 48.5421 32.5486 48.5866 32.5769 48.615C32.6053 48.6434 32.6417 48.6636 32.6944 48.6717C32.7511 48.6839 32.8078 48.6798 32.8565 48.6555C32.9496 48.611 33.0104 48.5299 33.0307 48.4084C33.0631 48.2342 33.0428 48.0802 32.9658 47.9465C32.9334 47.8898 32.8929 47.8574 32.8402 47.8493C32.824 47.8452 32.8078 47.8452 32.7957 47.8452C32.7552 47.8452 32.7228 47.8452 32.7066 47.8412C32.6822 47.8371 32.6377 47.8128 32.581 47.7723ZM30.5176 47.4739C30.5111 47.4778 30.5049 47.4815 30.4986 47.4846C30.4986 47.4279 30.4905 47.3874 30.4784 47.3631C30.45 47.3104 30.3852 47.2861 30.288 47.2861C30.13 47.2699 30.0125 47.274 29.9355 47.2942C29.8586 47.3145 29.818 47.355 29.814 47.4158C29.8099 47.4441 29.818 47.4684 29.8343 47.4887C29.8505 47.509 29.8869 47.5333 29.9355 47.5616C29.9882 47.59 30.0206 47.6305 30.0247 47.6751C30.0287 47.7237 30.0247 47.8736 30.0044 48.1329L29.972 48.4692C29.9639 48.5542 29.9558 48.6191 29.9396 48.6677C29.9234 48.7163 29.9031 48.7609 29.8707 48.7973C29.8302 48.8459 29.7775 48.8824 29.7087 48.9067C29.6398 48.931 29.5628 48.9391 29.4818 48.931C29.3522 48.9189 29.2509 48.8743 29.178 48.7892C29.0848 48.6839 29.0524 48.5461 29.0726 48.3719C29.0883 48.2285 29.1022 48.1098 29.1131 48.0154C29.1248 47.9153 29.1333 47.8425 29.1374 47.7966C29.1455 47.7075 29.1577 47.6467 29.1739 47.6102C29.1901 47.5738 29.2144 47.5495 29.2468 47.5373C29.3035 47.5171 29.336 47.5009 29.3441 47.4968C29.3765 47.4765 29.3967 47.4441 29.4008 47.3996C29.4089 47.3145 29.3603 47.2537 29.2549 47.2173C29.1455 47.1808 29.0078 47.1565 28.8417 47.1403C28.6918 47.1241 28.5581 47.1241 28.4447 47.1362C28.388 47.1403 28.3394 47.1565 28.3029 47.1848C28.2664 47.2132 28.2462 47.2456 28.2421 47.2861C28.234 47.3428 28.2664 47.3955 28.3272 47.4441C28.3677 47.4765 28.392 47.513 28.4001 47.5454C28.4123 47.5819 28.4123 47.6386 28.4042 47.7237C28.4001 47.7642 28.392 47.8412 28.3758 47.9627C28.3617 48.0816 28.3515 48.1787 28.3439 48.2513C28.3406 48.2826 28.3378 48.3094 28.3353 48.3314C28.3151 48.5218 28.3191 48.6677 28.3475 48.773C28.3758 48.8783 28.4325 48.9756 28.5217 49.0607C28.704 49.2349 28.9592 49.3362 29.2833 49.3686C29.4696 49.3848 29.6398 49.3726 29.7937 49.3321C30.0449 49.2673 30.2191 49.1376 30.3082 48.9472C30.3528 48.8581 30.3852 48.7001 30.4055 48.4732L30.4419 48.1005C30.4541 47.9506 30.4662 47.8412 30.4784 47.7763C30.4824 47.7318 30.4865 47.6913 30.4905 47.6548C30.5311 47.6508 30.5756 47.6305 30.6283 47.5981C30.681 47.5657 30.7336 47.5252 30.7822 47.4725C30.8308 47.4198 30.8673 47.3712 30.8916 47.3226C30.9321 47.2375 30.9483 47.1524 30.9321 47.0714C30.924 47.039 30.9078 47.0066 30.8876 46.9782C30.8673 46.9498 30.839 46.9296 30.8106 46.9134C30.7498 46.885 30.685 46.881 30.6161 46.9053C30.5635 46.9296 30.523 46.9661 30.4946 47.0187C30.4622 47.0876 30.4581 47.1565 30.4865 47.2253C30.4946 47.2497 30.5149 47.278 30.5473 47.3145C30.5756 47.3307 30.5918 47.3591 30.5918 47.3874C30.5918 47.4198 30.5797 47.4401 30.5513 47.4563C30.5389 47.4613 30.5279 47.4678 30.5176 47.4739ZM30.0044 46.6379C29.9355 46.6055 29.8545 46.5812 29.7613 46.5731C29.6884 46.565 29.6276 46.569 29.579 46.5812C29.5345 46.5933 29.5102 46.6095 29.5061 46.6379C29.5061 46.646 29.5061 46.6541 29.5102 46.6622C29.5183 46.6825 29.5223 46.6987 29.5223 46.7068C29.5219 46.7081 29.5214 46.7095 29.521 46.7109C29.5173 46.7223 29.5129 46.736 29.5021 46.7432C29.5001 46.7445 29.4977 46.7462 29.4948 46.7481C29.4801 46.7581 29.4536 46.7762 29.4129 46.7999C29.3562 46.8364 29.3238 46.8607 29.3116 46.8729C29.2995 46.8891 29.2954 46.9053 29.2914 46.9336C29.2833 47.0106 29.3319 47.0552 29.4372 47.0633C29.6236 47.0795 29.7978 47.039 29.9639 46.9336C30.053 46.8769 30.1016 46.8243 30.1097 46.7797C30.1138 46.7554 30.1057 46.7311 30.0854 46.7027C30.0652 46.6744 30.0368 46.6541 30.0044 46.6379ZM26.4474 48.1167L26.4191 47.6913C26.415 47.6467 26.4231 47.6143 26.4312 47.59C26.4515 47.5697 26.4839 47.5576 26.5325 47.5535C26.7108 47.5414 26.8485 47.6102 26.9336 47.7561C27.0106 47.8857 27.0592 48.0802 27.0754 48.3314C27.1078 48.7852 26.9741 49.0242 26.6784 49.0445C26.6135 49.0485 26.5649 49.0364 26.5366 49.012C26.5082 48.9877 26.492 48.9432 26.488 48.8783L26.4636 48.4975C26.4596 48.4367 26.4717 48.4043 26.5001 48.4043L26.5325 48.4084L26.7148 48.3922C26.7837 48.3841 26.8121 48.3436 26.808 48.2706C26.808 48.2301 26.7958 48.2018 26.7796 48.1855C26.7634 48.1693 26.7351 48.1612 26.6986 48.1653L26.5082 48.1774C26.4839 48.1815 26.4677 48.1774 26.4596 48.1693C26.4555 48.1612 26.4474 48.145 26.4474 48.1167ZM25.6858 48.2342L25.5805 48.2423C25.544 48.2423 25.5157 48.2544 25.5035 48.2787C25.4914 48.299 25.4833 48.3314 25.4873 48.376C25.4914 48.4165 25.4995 48.4448 25.5157 48.461C25.5278 48.4773 25.5562 48.4854 25.5967 48.4813L25.698 48.4732C25.7182 48.4732 25.7344 48.4732 25.7425 48.4813C25.7506 48.4894 25.7547 48.5016 25.7547 48.5218C25.7547 48.5461 25.7547 48.6191 25.7587 48.7325V48.9432C25.7547 49.012 25.7466 49.0566 25.7344 49.0809C25.7223 49.1052 25.698 49.1255 25.6575 49.1376C25.6169 49.1498 25.5845 49.1701 25.5683 49.1903C25.5521 49.2106 25.544 49.2389 25.5481 49.2754C25.5521 49.3281 25.5764 49.3686 25.621 49.3969C25.6656 49.4253 25.7223 49.4375 25.7911 49.4334C25.8074 49.4334 25.8438 49.4294 25.8924 49.4212C25.9694 49.4091 26.0423 49.401 26.1071 49.3969L26.2165 49.3888C26.3097 49.3807 26.415 49.3767 26.5406 49.3726L26.6986 49.3645L26.885 49.3564C27.0227 49.3443 27.1524 49.3159 27.2698 49.2673C27.4724 49.1822 27.6263 49.0485 27.7317 48.8702C27.8451 48.6758 27.8897 48.4489 27.8735 48.1896C27.8613 47.9708 27.8005 47.7804 27.6993 47.6224C27.5858 47.4441 27.4238 47.3185 27.2172 47.2537C27.0794 47.2091 26.889 47.197 26.65 47.2132C26.6014 47.2172 26.5528 47.2213 26.5163 47.2253C26.334 47.2497 26.172 47.2659 26.0261 47.274C26.0023 47.2764 25.9714 47.2773 25.9327 47.2786C25.9057 47.2794 25.8748 47.2804 25.8398 47.2821C25.7992 47.2821 25.7668 47.2821 25.7385 47.2861C25.6534 47.2942 25.5845 47.3104 25.54 47.3428C25.4914 47.3712 25.4711 47.4158 25.4752 47.4644C25.4792 47.5292 25.5157 47.5738 25.5886 47.594C25.6372 47.6062 25.6696 47.6264 25.6858 47.6548C25.702 47.6832 25.7142 47.7399 25.7182 47.825C25.7263 47.9182 25.7304 47.9951 25.7304 48.0437C25.7304 48.1005 25.7304 48.1369 25.7344 48.1572L25.7385 48.1896C25.7385 48.2058 25.7385 48.218 25.7304 48.222C25.7223 48.2301 25.7101 48.2342 25.6858 48.2342ZM23.3361 47.6913C23.2146 47.671 23.0849 47.6751 22.9553 47.6994C22.7446 47.7358 22.5664 47.8128 22.4124 47.9384C22.2423 48.0681 22.1208 48.2301 22.0478 48.4246C21.979 48.6069 21.9587 48.7892 21.9911 48.9715C22.0235 49.1498 22.0924 49.3119 22.2018 49.4537C22.3314 49.6238 22.5016 49.7454 22.7082 49.8142C22.9107 49.8831 23.1214 49.8993 23.3402 49.8588C23.4739 49.8345 23.5994 49.794 23.7129 49.7292C23.8304 49.6684 23.9235 49.5914 23.9965 49.5023C24.1018 49.3686 24.1626 49.2227 24.1788 49.0526C24.1828 49.008 24.1909 48.9796 24.199 48.9675C24.2071 48.9553 24.2314 48.9432 24.2638 48.931C24.3044 48.9189 24.3327 48.8986 24.353 48.8662C24.3732 48.8338 24.3813 48.8014 24.3732 48.7649C24.3611 48.6758 24.2922 48.6231 24.1788 48.6069C24.0572 48.5907 23.9114 48.5988 23.7412 48.6272C23.5832 48.6515 23.4455 48.696 23.3321 48.7568C23.2308 48.8095 23.1822 48.8783 23.1984 48.9634C23.2065 49.0039 23.2267 49.0364 23.2591 49.0607C23.2916 49.085 23.328 49.0931 23.3726 49.085C23.4212 49.0769 23.4536 49.0728 23.4617 49.0728C23.4698 49.0728 23.482 49.0728 23.4941 49.0809C23.5265 49.0971 23.5468 49.1295 23.5549 49.1782C23.563 49.2308 23.5549 49.2794 23.5265 49.32C23.5022 49.3605 23.4617 49.3848 23.409 49.3929C23.3442 49.405 23.2753 49.3969 23.2065 49.3726C23.1376 49.3483 23.0728 49.3078 23.0161 49.2551C22.8621 49.1093 22.7649 48.9148 22.7244 48.6717C22.696 48.5097 22.7122 48.3719 22.773 48.2625C22.8338 48.1531 22.931 48.0883 23.0606 48.064C23.2065 48.0397 23.3442 48.0843 23.4779 48.2018C23.5589 48.2747 23.6075 48.3111 23.6278 48.3233C23.6926 48.3557 23.7534 48.3679 23.8101 48.3557C23.879 48.3436 23.9357 48.3071 23.9681 48.2463C24.0005 48.1855 24.0127 48.1086 23.9965 48.0235C23.9722 47.8979 23.9114 47.7885 23.8101 47.6953C23.7493 47.6386 23.6886 47.6143 23.6319 47.6224C23.6075 47.6224 23.5873 47.6305 23.567 47.6427C23.5063 47.6751 23.4658 47.6953 23.4455 47.6994C23.4293 47.7034 23.3928 47.6994 23.3361 47.6913ZM20.9297 48.8621L20.0587 48.3395C20.0119 48.3128 19.9707 48.2943 19.9327 48.2773C19.9246 48.2737 19.9166 48.2701 19.9088 48.2666C19.8723 48.2585 19.8116 48.2625 19.7305 48.2787C19.5887 48.3071 19.4915 48.3273 19.4389 48.3476C19.2768 48.4043 19.2079 48.4813 19.2241 48.5785C19.2282 48.611 19.2444 48.6353 19.2647 48.6515C19.2849 48.6717 19.3214 48.6879 19.37 48.7001C19.4145 48.7122 19.447 48.7284 19.4672 48.7446C19.4875 48.7649 19.5077 48.7933 19.528 48.8338C19.5806 48.9513 19.6293 49.1376 19.6779 49.3969C19.7224 49.6441 19.7467 49.8304 19.7548 49.9641C19.7589 50.0371 19.7386 50.0938 19.6981 50.1303C19.6536 50.1708 19.6293 50.1991 19.6171 50.2194C19.605 50.2396 19.6009 50.268 19.609 50.3004C19.6212 50.3693 19.6698 50.4139 19.7508 50.4341C19.8318 50.4584 19.9412 50.4544 20.0749 50.4301C20.3747 50.3733 20.5084 50.2761 20.4841 50.1343C20.4719 50.0776 20.4314 50.0411 20.3585 50.0209C20.3058 50.0047 20.2653 49.9722 20.241 49.9236C20.2167 49.875 20.1883 49.7818 20.164 49.64C20.1316 49.4699 20.1478 49.3807 20.2086 49.3686C20.2491 49.3605 20.3058 49.3807 20.3787 49.4253L21.4158 50.0654C21.4766 50.1019 21.5212 50.1262 21.5455 50.1343C21.5698 50.1424 21.5981 50.1424 21.6306 50.1384C21.7035 50.1262 21.744 50.0654 21.7521 49.9641C21.7602 49.8831 21.748 49.7535 21.7156 49.5752C21.7088 49.5389 21.7024 49.5049 21.6963 49.473C21.6806 49.3908 21.6677 49.3227 21.6589 49.2673L21.5698 48.773C21.5374 48.5866 21.5252 48.461 21.5414 48.3881C21.5455 48.3638 21.5536 48.3476 21.5617 48.3355C21.5738 48.3233 21.59 48.3111 21.6184 48.2909C21.6873 48.2423 21.7156 48.1855 21.7035 48.1207C21.6913 48.0437 21.6346 47.9992 21.5374 47.987C21.4766 47.983 21.3672 47.9911 21.2173 48.0194C21.0998 48.0397 21.0188 48.06 20.9743 48.0802C20.8649 48.1248 20.8163 48.1896 20.8325 48.2747C20.8406 48.3111 20.8527 48.3355 20.873 48.3557C20.8932 48.3719 20.9216 48.3881 20.9662 48.4003C21.0188 48.4165 21.0553 48.4448 21.0796 48.4894C21.0998 48.534 21.1242 48.6191 21.1485 48.7446C21.1687 48.8581 21.1525 48.9189 21.0999 48.927C21.0674 48.931 21.0107 48.9108 20.9297 48.8621ZM18.0939 49.875L17.7981 49.9236C17.7536 49.9317 17.7292 49.9236 17.7292 49.8953C17.7252 49.875 17.7373 49.8102 17.7617 49.7008C17.7738 49.636 17.7819 49.5955 17.786 49.5874C17.7981 49.5144 17.8224 49.478 17.8589 49.4699C17.8791 49.4658 17.8994 49.4739 17.9197 49.4901C17.9399 49.5104 17.9723 49.5468 18.0169 49.5995C18.1141 49.717 18.1668 49.794 18.1708 49.8264C18.1749 49.8507 18.1465 49.8669 18.0939 49.875ZM19.2039 50.1262L18.819 49.559C18.4868 49.0728 18.2478 48.7852 18.1101 48.7041C18.0047 48.6393 17.8994 48.615 17.7981 48.6312C17.6928 48.6474 17.6077 48.7001 17.551 48.7811C17.5226 48.8176 17.5064 48.854 17.5024 48.8905C17.4983 48.9229 17.5024 48.9837 17.5145 49.0728C17.5267 49.1579 17.5267 49.243 17.5145 49.3321C17.5024 49.4212 17.47 49.559 17.4214 49.7454L17.2836 50.2518C17.2431 50.3976 17.2107 50.4949 17.1823 50.5435C17.154 50.5881 17.1094 50.6326 17.0486 50.665C17.0081 50.6853 16.9838 50.7056 16.9717 50.7258C16.9595 50.7461 16.9555 50.7704 16.9595 50.8028C16.9717 50.8757 17.0162 50.9162 17.0892 50.9243C17.1702 50.9365 17.2917 50.9284 17.4538 50.9C17.7414 50.8555 17.8751 50.7704 17.8548 50.6488C17.8467 50.5962 17.8103 50.5638 17.7454 50.5557C17.6968 50.5475 17.6644 50.5395 17.6563 50.5354C17.6442 50.5313 17.6401 50.5151 17.6361 50.4949C17.632 50.4706 17.632 50.4422 17.6401 50.4139C17.6482 50.3855 17.6563 50.3652 17.6725 50.3531C17.6968 50.3328 17.7738 50.3085 17.9075 50.2883C18.0655 50.2599 18.1911 50.2477 18.2802 50.2437C18.3653 50.2437 18.4098 50.2761 18.422 50.345C18.4301 50.3814 18.4098 50.4139 18.3653 50.4382C18.3248 50.4584 18.2964 50.4787 18.2843 50.4989C18.2721 50.5151 18.2681 50.5395 18.2721 50.5719C18.2802 50.6124 18.2964 50.6407 18.3329 50.665C18.3693 50.6894 18.4098 50.7015 18.4625 50.7015C18.5759 50.7015 18.7461 50.6812 18.973 50.6448C19.1715 50.6083 19.3133 50.5719 19.3983 50.5232C19.4794 50.4746 19.5158 50.4139 19.5037 50.3409C19.4956 50.2761 19.451 50.2477 19.3781 50.2477C19.3416 50.2518 19.3092 50.2437 19.289 50.2275C19.2687 50.2113 19.2403 50.1789 19.2039 50.1262ZM15.5051 49.1012C15.497 48.9715 15.3309 48.9189 15.0149 48.9432C14.8934 48.9553 14.7719 48.9756 14.6382 49.0039C14.5253 49.0369 14.4465 49.078 14.4019 49.1265C14.4009 49.1276 14.3999 49.1287 14.3989 49.1298C14.3688 49.164 14.3554 49.2018 14.3586 49.243M15.5051 49.1012C15.5092 49.1376 15.5011 49.166 15.4889 49.1903L15.5051 49.1012ZM15.4889 49.1903C15.4727 49.2146 15.4444 49.243 15.4039 49.2713L15.4889 49.1903ZM15.4039 49.2713C15.3674 49.2997 15.3431 49.3321 15.335 49.3726L15.4039 49.2713ZM15.335 49.3726C15.3269 49.4131 15.3309 49.4942 15.339 49.6157L15.335 49.3726ZM15.339 49.6157C15.3431 49.6886 15.3593 49.7292 15.3876 49.7454L15.339 49.6157ZM15.3876 49.7454C15.4039 49.7535 15.4282 49.7575 15.4565 49.7575L15.3876 49.7454ZM15.4565 49.7575C15.4889 49.7575 15.5619 49.7535 15.6753 49.7413L15.4565 49.7575ZM15.6753 49.7413C15.7806 49.7332 15.8454 49.7211 15.8697 49.7089L15.6753 49.7413ZM15.8697 49.7089C15.894 49.6967 15.9062 49.6684 15.9022 49.6198L15.8697 49.7089ZM15.9022 49.6198C15.89 49.4861 15.8778 49.3929 15.8616 49.3402L15.9022 49.6198ZM15.8616 49.3402C15.8454 49.2875 15.8171 49.2551 15.7806 49.2389L15.8616 49.3402ZM15.7806 49.2389C15.732 49.2187 15.7036 49.1984 15.6874 49.1822L15.7806 49.2389ZM15.6874 49.1822C15.6712 49.166 15.6631 49.1417 15.6591 49.1133L15.6874 49.1822ZM15.6591 49.1133C15.655 49.0728 15.6672 49.0323 15.6955 48.9958L15.6591 49.1133ZM15.6955 48.9958C15.7239 48.9594 15.7644 48.931 15.813 48.9148L15.6955 48.9958ZM15.813 48.9148C15.9184 48.8824 16.048 48.8581 16.206 48.8419L15.813 48.9148ZM16.206 48.8419C16.3923 48.8257 16.5301 48.8338 16.6233 48.8581L16.206 48.8419ZM16.6233 48.8581C16.7164 48.8865 16.7651 48.9351 16.7691 49.008L16.6233 48.8581ZM16.7691 49.008C16.7732 49.0688 16.7448 49.1174 16.684 49.1538L16.7691 49.008ZM16.684 49.1538C16.6476 49.1741 16.6233 49.1944 16.6111 49.2146L16.684 49.1538ZM16.6111 49.2146C16.599 49.2349 16.5949 49.2632 16.5909 49.3119L16.6111 49.2146ZM16.5909 49.3119C16.5868 49.3362 16.5909 49.4496 16.603 49.6522L16.5909 49.3119ZM16.603 49.6522C16.6097 49.8188 16.6191 49.9552 16.6267 50.066L16.603 49.6522ZM16.6267 50.066C16.6284 50.09 16.6299 50.1127 16.6314 50.1343L16.6267 50.066ZM16.6314 50.1343C16.6476 50.3409 16.6678 50.4746 16.6881 50.5273L16.6314 50.1343ZM16.6881 50.5273C16.689 50.5294 16.6898 50.5314 16.6907 50.5334L16.6881 50.5273ZM16.6907 50.5334C16.7014 50.5586 16.7092 50.5768 16.7205 50.5881L16.6907 50.5334ZM16.7205 50.5881C16.7326 50.5962 16.7651 50.6164 16.8218 50.6407L16.7205 50.5881ZM16.8218 50.6407C16.8623 50.661 16.8825 50.6894 16.8866 50.7339L16.8218 50.6407ZM16.8866 50.7339C16.8947 50.8109 16.8501 50.8717 16.761 50.9162L16.8866 50.7339ZM16.761 50.9162C16.6719 50.9608 16.526 50.9892 16.3194 51.0054L16.761 50.9162ZM16.3194 51.0054C16.1371 51.0216 16.0034 51.0135 15.9143 50.9851L16.3194 51.0054ZM15.9143 50.9851C15.8333 50.9608 15.7887 50.9122 15.7847 50.8433L15.9143 50.9851ZM15.7847 50.8433C15.7806 50.7866 15.8049 50.738 15.8616 50.6975L15.7847 50.8433ZM15.8616 50.6975C15.89 50.6772 15.9103 50.661 15.9184 50.6448L15.8616 50.6975ZM15.9184 50.6448C15.9265 50.6286 15.9346 50.5962 15.9427 50.5516L15.9184 50.6448ZM15.9427 50.5516C15.9548 50.4625 15.9548 50.3571 15.9427 50.2315V50.5516ZM15.9427 50.2315C15.9386 50.1667 15.9265 50.1262 15.9062 50.114L15.9427 50.2315ZM15.9062 50.114C15.8859 50.1019 15.8373 50.0978 15.7563 50.1019L15.9062 50.114ZM15.7563 50.1019C15.574 50.1181 15.4606 50.1343 15.412 50.1627L15.7563 50.1019ZM15.412 50.1627C15.3917 50.1708 15.3795 50.1991 15.3795 50.2396L15.412 50.1627ZM15.3795 50.2396C15.3758 50.2841 15.3789 50.3388 15.3826 50.4037L15.3795 50.2396ZM15.3826 50.4037C15.3829 50.4097 15.3833 50.4158 15.3836 50.422L15.3826 50.4037ZM15.3836 50.422C15.3917 50.5394 15.416 50.6205 15.4525 50.6691L15.3836 50.422ZM15.4525 50.6691C15.4646 50.6853 15.493 50.7015 15.5375 50.7258L15.4525 50.6691ZM15.5375 50.7258C15.5821 50.7461 15.6064 50.7866 15.6105 50.8433L15.5375 50.7258ZM15.6105 50.8433C15.6145 50.9162 15.57 50.973 15.4768 51.0175L15.6105 50.8433ZM15.4768 51.0175C15.3795 51.0621 15.2418 51.0945 15.0595 51.1107L15.4768 51.0175ZM15.0595 51.1107C14.8934 51.1229 14.7557 51.1188 14.6463 51.0904L15.0595 51.1107ZM14.6463 51.0904C14.6017 51.0783 14.5612 51.058 14.5328 51.0337L14.6463 51.0904ZM14.5328 51.0337C14.5045 51.0094 14.4883 50.977 14.4842 50.9446L14.5328 51.0337ZM14.4842 50.9446C14.4802 50.9122 14.4883 50.8838 14.5004 50.8636L14.4842 50.9446ZM14.5004 50.8636C14.5166 50.8433 14.549 50.819 14.6017 50.7825L14.5004 50.8636ZM14.6017 50.7825C14.6301 50.7663 14.6463 50.7461 14.6584 50.7218L14.6017 50.7825ZM14.6584 50.7218C14.6665 50.6975 14.6746 50.661 14.6746 50.6043L14.6584 50.7218ZM14.6746 50.6043C14.6787 50.4827 14.6746 50.3247 14.6584 50.1343L14.6746 50.6043ZM14.6584 50.1343C14.6544 50.0978 14.6503 50.0573 14.6463 50.0087L14.6584 50.1343ZM14.6463 50.0087C14.6325 49.8689 14.6227 49.7642 14.616 49.6929L14.6463 50.0087ZM14.616 49.6929C14.6108 49.6382 14.6075 49.6032 14.6058 49.5874L14.616 49.6929ZM14.6058 49.5874C14.5977 49.4982 14.5896 49.4415 14.5693 49.4172L14.6058 49.5874ZM14.5693 49.4172C14.5531 49.3888 14.5085 49.3645 14.4356 49.3362L14.5693 49.4172ZM14.4356 49.3362C14.4018 49.3239 14.3774 49.3023 14.3657 49.2732L14.4356 49.3362Z" fill="#14130E"/>
<path d="M15.5051 49.1012C15.497 48.9715 15.3309 48.9189 15.0149 48.9432C14.8934 48.9553 14.7719 48.9756 14.6382 49.0039C14.5253 49.0369 14.4465 49.078 14.4019 49.1265C14.4055 49.14 14.4073 49.1545 14.4073 49.1701C14.4073 49.2095 14.3937 49.2445 14.3657 49.2732C14.3774 49.3023 14.4018 49.3239 14.4356 49.3362C14.5085 49.3645 14.5531 49.3888 14.5693 49.4172C14.5896 49.4415 14.5977 49.4982 14.6058 49.5874C14.6075 49.6032 14.6108 49.6382 14.616 49.6929C14.6227 49.7642 14.6325 49.8689 14.6463 50.0087C14.6503 50.0573 14.6544 50.0978 14.6584 50.1343C14.6746 50.3247 14.6787 50.4827 14.6746 50.6043C14.6746 50.661 14.6665 50.6975 14.6584 50.7218C14.6463 50.7461 14.6301 50.7663 14.6017 50.7825C14.549 50.819 14.5166 50.8433 14.5004 50.8636C14.4883 50.8838 14.4802 50.9122 14.4842 50.9446C14.4883 50.977 14.5045 51.0094 14.5328 51.0337C14.5612 51.058 14.6017 51.0783 14.6463 51.0904C14.7557 51.1188 14.8934 51.1229 15.0595 51.1107C15.2418 51.0945 15.3795 51.0621 15.4768 51.0175C15.57 50.973 15.6145 50.9162 15.6105 50.8433C15.6064 50.7866 15.5821 50.7461 15.5375 50.7258C15.493 50.7015 15.4646 50.6853 15.4525 50.6691C15.416 50.6205 15.3917 50.5394 15.3836 50.422L15.3826 50.4037C15.3789 50.3388 15.3758 50.2841 15.3795 50.2396C15.3795 50.1991 15.3917 50.1708 15.412 50.1627C15.4606 50.1343 15.574 50.1181 15.7563 50.1019C15.8373 50.0978 15.8859 50.1019 15.9062 50.114C15.9265 50.1262 15.9386 50.1667 15.9427 50.2315C15.9548 50.3571 15.9548 50.4625 15.9427 50.5516C15.9346 50.5962 15.9265 50.6286 15.9184 50.6448C15.9103 50.661 15.89 50.6772 15.8616 50.6975C15.8049 50.738 15.7806 50.7866 15.7847 50.8433C15.7887 50.9122 15.8333 50.9608 15.9143 50.9851C16.0034 51.0135 16.1371 51.0216 16.3194 51.0054C16.526 50.9892 16.6719 50.9608 16.761 50.9162C16.8501 50.8717 16.8947 50.8109 16.8866 50.7339C16.8825 50.6894 16.8623 50.661 16.8218 50.6407C16.7651 50.6164 16.7326 50.5962 16.7205 50.5881C16.7092 50.5768 16.7014 50.5586 16.6907 50.5334L16.6881 50.5273C16.6678 50.4746 16.6476 50.3409 16.6314 50.1343L16.6267 50.066C16.6191 49.9552 16.6097 49.8188 16.603 49.6522C16.5909 49.4496 16.5868 49.3362 16.5909 49.3119C16.5949 49.2632 16.599 49.2349 16.6111 49.2146C16.6233 49.1944 16.6476 49.1741 16.684 49.1538C16.7448 49.1174 16.7732 49.0688 16.7691 49.008C16.7651 48.9351 16.7164 48.8865 16.6233 48.8581C16.5301 48.8338 16.3923 48.8257 16.206 48.8419C16.048 48.8581 15.9184 48.8824 15.813 48.9148C15.7644 48.931 15.7239 48.9594 15.6955 48.9958C15.6672 49.0323 15.655 49.0728 15.6591 49.1133C15.6631 49.1417 15.6712 49.166 15.6874 49.1822C15.7036 49.1984 15.732 49.2187 15.7806 49.2389C15.8171 49.2551 15.8454 49.2875 15.8616 49.3402C15.8778 49.3929 15.89 49.4861 15.9022 49.6198C15.9062 49.6684 15.894 49.6967 15.8697 49.7089C15.8454 49.7211 15.7806 49.7332 15.6753 49.7413C15.5619 49.7535 15.4889 49.7575 15.4565 49.7575C15.4282 49.7575 15.4039 49.7535 15.3876 49.7454C15.3593 49.7292 15.3431 49.6886 15.339 49.6157C15.3309 49.4942 15.3269 49.4131 15.335 49.3726C15.3431 49.3321 15.3674 49.2997 15.4039 49.2713C15.4444 49.243 15.4727 49.2146 15.4889 49.1903C15.5011 49.166 15.5092 49.1376 15.5051 49.1012Z" fill="#14130E"/>
<path d="M13.52 49.7575L12.7544 49.0931C12.7017 49.0485 12.6571 49.0202 12.6247 49.008C12.5883 48.9958 12.5275 48.9918 12.4465 48.9918C12.3047 48.9958 12.2034 48.9999 12.1467 49.008C11.9765 49.0323 11.8955 49.0971 11.8955 49.1944C11.8955 49.2227 11.9077 49.2511 11.9239 49.2713C11.9441 49.2916 11.9765 49.3159 12.0211 49.3362C12.0616 49.3564 12.09 49.3767 12.1062 49.3969C12.1264 49.4172 12.1386 49.4496 12.1507 49.4942C12.1831 49.6157 12.1993 49.8102 12.2034 50.0735C12.2075 50.3207 12.1993 50.5111 12.1831 50.6448C12.175 50.7177 12.1467 50.7704 12.0981 50.7987C12.0454 50.8312 12.013 50.8555 12.0008 50.8717C11.9887 50.8879 11.9806 50.9122 11.9806 50.9486C11.9806 51.0135 12.017 51.0661 12.094 51.1026C12.171 51.1391 12.2763 51.1553 12.4141 51.1553C12.7179 51.1512 12.8678 51.0783 12.8678 50.9365C12.8637 50.8838 12.8313 50.8393 12.7625 50.8068C12.7139 50.7825 12.6814 50.7461 12.6652 50.6934C12.649 50.6407 12.6369 50.5435 12.6369 50.4017C12.6328 50.2315 12.6652 50.1424 12.726 50.1424C12.7665 50.1424 12.8192 50.1708 12.884 50.2275L13.7996 51.0378C13.8522 51.0823 13.8887 51.1148 13.913 51.1269C13.9333 51.1391 13.9616 51.1472 13.994 51.1472C14.067 51.1472 14.1196 51.0986 14.1439 50.9973C14.1642 50.9162 14.1763 50.7866 14.1723 50.6043C14.1723 50.4706 14.1682 50.3652 14.1682 50.2883L14.1642 49.7859C14.1642 49.5955 14.1763 49.4699 14.2047 49.401C14.2128 49.3807 14.2209 49.3686 14.2331 49.3564C14.2412 49.3443 14.2614 49.3321 14.2938 49.32C14.3239 49.3073 14.3478 49.2915 14.3657 49.2732C14.362 49.2639 14.3596 49.2538 14.3586 49.243C14.3554 49.2018 14.3688 49.164 14.3989 49.1298L14.4019 49.1265C14.387 49.0697 14.3408 49.0309 14.2655 49.008C14.2047 48.9918 14.0994 48.9837 13.9454 48.9837C13.8239 48.9837 13.7429 48.9877 13.6942 48.9999C13.5768 49.0242 13.52 49.0809 13.52 49.166C13.52 49.2025 13.5281 49.2308 13.5443 49.2511C13.5606 49.2713 13.5889 49.2916 13.6294 49.3119C13.678 49.3362 13.7104 49.3686 13.7267 49.4172C13.7429 49.4618 13.751 49.5509 13.751 49.6805C13.755 49.794 13.7267 49.8507 13.674 49.8507C13.6416 49.8507 13.593 49.8183 13.52 49.7575Z" fill="#14130E"/>
</g>
<defs>
<clipPath id="clip0_351_4712">
<rect width="61.9835" height="60" fill="white"/>
</clipPath>
</defs>
</svg>
