<svg width="100" height="97" viewBox="0 0 100 97" fill="none" xmlns="http://www.w3.org/2000/svg">
<g clip-path="url(#clip0_351_4568)">
<path d="M10.5566 73.4644C10.5566 73.4644 17.8965 75.8567 22.5959 75.6345C27.2952 75.4057 37.1645 73.752 40.1122 73.2226C43.0664 72.6996 50.0599 72.5885 56.9423 74.6998C63.8246 76.811 75.5305 75.2684 78.8638 73.4513C77.7331 76.1247 75.0338 78.883 74.8442 79.1576C74.6547 79.4321 74.4651 79.9877 75.4717 80.8309C76.4782 81.6741 79.0207 84.5762 79.0207 84.5762C79.0207 84.5762 74.4978 85.4521 68.7919 85.5763C63.0795 85.7005 52.2429 83.3605 47.9227 82.6676C43.6024 81.9747 34.5566 84.0076 30.5959 84.707C26.6285 85.4063 16.8638 86.2299 10.7135 84.3082C13.1318 81.831 14.7135 80.2753 14.72 79.5301C14.7331 78.7915 12.2691 77.0071 10.5566 73.4644Z" fill="black"/>
<path d="M53.8964 5.3289C53.8964 5.3289 54.2493 6.49237 55.5434 6.50545C56.831 6.51852 60.6088 6.09366 61.648 8.14607C62.6872 10.1985 62.3735 13.4405 60.4781 14.1138C58.5826 14.787 57.0794 13.2902 57.2755 11.9045C57.4715 10.5188 55.1774 10.2573 54.9291 11.7868C54.6807 13.3163 55.4846 15.591 58.5696 15.9505C61.648 16.31 64.5304 13.6954 65.3277 12.3163C66.1251 10.9371 66.746 8.76049 69.5042 9.25725C72.2624 9.74748 72.7199 16.4669 70.6807 17.9245C68.6415 19.3886 64.3408 22.3757 59.7983 19.5259C55.6545 16.9309 53.7199 17.3035 52.6611 17.2055C51.5108 17.1009 49.4519 15.1792 48.5892 14.0615C47.7264 12.9372 46.7199 12.1855 43.8245 12.1529C40.9225 12.1202 38.2362 12.4143 35.3343 8.53826C32.4258 4.66219 32.733 0.00830078 32.733 0.00830078C32.733 0.00830078 35.8441 6.34204 38.8245 7.53819C41.8049 8.72781 43.2297 7.06757 42.3539 4.9694C41.4781 2.87776 38.8702 0.929928 38.8702 0.929928C38.8702 0.929928 42.3604 1.00183 44.6088 4.08699C46.8572 7.17215 48.5957 8.54479 49.7068 8.13954C50.8179 7.73428 48.4911 5.62304 49.0598 4.17196C49.6611 6.05444 50.4585 5.71455 52.0206 7.24405C52.5761 7.78657 54.4062 7.79311 53.9748 6.91724C53.4977 5.94985 53.8964 5.3289 53.8964 5.3289Z" fill="black"/>
<path d="M33.0078 8.71484C33.0078 8.71484 36.7856 13.0681 39.766 13.6563C42.7529 14.2446 45.1581 12.7412 47.7594 15.2251C50.3608 17.7089 51.5895 18.6044 53.5242 18.6697C55.4588 18.7351 57.6549 20.1012 59.0274 20.8594C60.4 21.6176 65.0862 22.5458 66.9294 22.2386C68.7725 21.9314 70.8183 20.4738 71.6745 22.0556C72.5307 23.6439 71.5241 27.7095 65.8052 28.5266C67.3869 26.6898 67.596 24.6963 65.8902 24.5394C64.1908 24.3825 61.1255 26.8075 59.6483 27.3958C58.1712 27.984 55.3608 27.9971 55.3608 27.9971C55.3608 27.9971 58.413 26.6376 58.1974 25.1996C57.9817 23.7616 54.681 22.5654 53.0536 23.8465C51.4261 25.1277 49.5699 26.7291 46.4523 25.814C47.864 25.2715 48.596 23.4674 48.3804 22.0752C48.1647 20.6829 47.2562 18.539 43.9947 17.7612C42.4588 17.3951 40.4392 16.9637 38.0993 15.1074C36.4588 13.8263 33.0078 8.99591 33.0078 8.71484Z" fill="black"/>
<path d="M30.0146 13.5977C30.0146 13.5977 33.6617 16.6959 37.3807 17.6633C41.0996 18.6307 44.0539 18.4476 45.812 21.0426C47.08 22.9185 45.1192 25.9514 40.4068 23.3042C35.6944 20.6569 31.9493 17.5129 30.0146 13.5977Z" fill="black"/>
<path d="M31.8969 26.7815C31.8969 26.7815 30.9884 21.2125 28.8773 18.7548C26.7597 16.2971 24.4198 15.65 24.4198 15.65C24.4198 15.65 25.1584 17.6763 24.3283 18.0815C23.4982 18.3495 22.6028 17.9966 21.5767 17.2906C20.5505 16.5847 17.093 16.8266 17.093 16.8266C17.093 16.8266 19.0146 18.1012 18.3152 18.8594C17.6159 19.6176 14.3218 17.7743 11.7401 20.317C14.5701 20.1405 14.5636 20.9706 14.1388 21.8007C13.7139 22.6309 10.5244 24.1931 9.81849 25.2323C9.11915 26.2651 7.68124 24.7944 8.19104 22.6439C8.69431 20.4935 10.5309 17.1076 11.7139 16.1468C12.8969 15.1859 13.0473 13.8002 12.7205 12.6106C11.7401 14.1989 10.8185 16.0683 9.91653 16.4736C9.01457 16.8854 8.46555 16.2514 9.23679 15.3559C10.008 14.4604 9.7466 12.5126 8.79235 11.8066C8.57013 13.0551 7.91653 16.2448 7.02111 16.3756C6.11915 16.5063 5.78581 15.735 5.79235 14.833C5.79889 13.931 5.19104 13.0878 3.81196 12.7936C4.48516 14.1924 4.7466 15.6566 4.45902 17.1142C4.1649 18.5718 4.05379 22.9511 4.24987 23.9251C4.44594 24.899 3.74006 26.35 2.96882 27.3174C2.19758 28.2848 1.26947 31.1216 0.0341797 30.5529C1.89039 31.2654 2.79889 30.3764 3.07993 29.5398C3.36751 28.7097 4.4198 27.0494 5.66163 27.2717C6.90346 27.4939 7.08647 29.7228 5.68124 32.0694C4.27601 34.4159 -5.92007 58.5743 18.9296 74.5296C16.6551 71.7255 7.36751 62.0321 6.72699 53.306C6.07993 44.5865 7.85771 41.8216 10.0734 41.2007C12.2891 40.5732 12.9231 41.6974 11.7989 43.4426C10.6747 45.1944 10.6224 45.75 10.7989 46.4886C11.178 45.6585 11.8773 44.6911 12.6159 44.1878C13.3544 43.6845 13.9754 41.9785 14.9035 41.0569C15.8316 40.1418 18.1061 38.6842 18.9819 38.5534C19.8577 38.4227 21.0211 37.135 22.0407 36.8278C23.0538 36.5141 23.4656 36.7952 23.4656 36.7952C23.4656 36.7952 22.6943 35.6252 21.544 35.8474C20.3937 36.0696 19.5963 37.4488 18.6747 37.207C18.9165 36.2788 19.6159 35.1741 20.544 34.4944C21.4721 33.808 22.2237 32.5661 23.1845 32.5792C23.1845 32.5792 22.3218 31.6903 21.4852 32.1936C20.6486 32.6969 19.7205 33.8407 19.3937 34.161C19.0669 34.4813 18.2303 35.1676 18.0995 34.9323C17.9623 34.697 17.8839 33.259 18.6812 32.2981C19.4721 31.3308 19.4852 30.2653 20.178 30.0888C18.8904 29.9385 18.3806 30.4418 17.8577 32.0563C17.3348 33.6708 16.727 34.3179 16.1191 35.2395C15.5113 36.1611 13.7008 37.8541 12.3087 38.3508C10.9231 38.8476 9.4198 37.3442 10.5963 35.0434C11.7727 32.7361 15.5701 28.4155 20.2172 26.7945C23.6812 25.5788 29.3806 25.5069 31.8969 26.7815Z" fill="black"/>
<path d="M18.9226 74.5232C18.9226 74.5232 20.2821 74.5951 21.3866 74.6082C22.4912 74.6213 27.1906 74.4971 27.1906 74.4971C27.1906 74.4971 26.6873 73.4513 25.72 73.0918C24.7592 72.7323 23.8768 71.1962 23.6808 70.0785C23.4847 68.9608 22.9879 67.1829 22.6481 66.7319C22.3082 66.2743 22.2821 65.3004 22.2886 64.9213C22.2951 64.5357 21.0468 64.6664 20.6612 65.5619C20.269 66.4639 19.9945 66.6011 19.6873 66.4573C19.3801 66.3135 19.2232 64.7513 19.2232 64.7513C19.2232 64.7513 18.3147 65.7841 18.3082 66.7253C18.3017 67.66 18.8115 68.2941 18.7396 68.5686C18.6677 68.8496 17.5958 69.0065 17.3932 68.3463C17.1906 67.6862 16.9618 66.6404 16.9618 66.6404C16.9618 66.6404 15.9683 68.8562 16.2755 69.5556C16.5762 70.255 17.9945 70.3399 19.1252 70.8759C20.2625 71.4119 21.2167 72.5296 21.3801 73.4382C21.5435 74.3402 21.0272 74.1964 20.4781 73.9153C19.9291 73.6277 17.4585 71.7975 16.1644 70.3203C14.8703 68.8496 7.67422 60.372 6.57619 50.7178C3.78534 53.28 6.12521 58.7771 6.12521 58.7771C6.12521 58.7771 10.2036 65.1239 10.5631 65.7776C10.9226 66.4312 14.2821 71.0066 14.2821 71.0066L18.9226 74.5232Z" fill="black"/>
<path d="M23.126 50.979C23.126 50.979 23.1521 48.8481 24.4397 48.5801C25.7338 48.3187 26.8449 47.5866 27.041 46.4754C27.2371 45.3642 27.6227 43.6059 28.5574 42.5993C29.4855 41.5927 31.2567 39.756 31.8188 39.0174C32.3809 38.2853 32.9234 38.8409 33.309 37.0892C33.6946 35.3309 34.3417 35.1544 35.2632 35.161C36.1848 35.174 36.0083 34.4289 36.6554 34.0628C37.3025 33.6968 38.407 33.8929 39.9626 34.8407C41.5181 35.7819 42.3613 34.3112 43.6292 36.3636C44.8972 38.4161 44.0606 38.8736 44.8841 39.4357C45.7077 39.9979 46.4397 40.1024 45.9691 41.2986C45.4985 42.5013 44.2894 43.4098 43.7273 44.24C43.1652 45.0701 42.6881 46.8218 43.3221 47.5735C43.956 48.3187 44.2044 50.8286 43.9168 52.4954C43.6227 54.1622 43.8907 55.1818 42.407 55.8159C40.9299 56.4499 39.2632 57.2669 38.5181 57.7179C37.7796 58.1755 29.407 57.6199 29.407 57.6199C29.407 57.6199 28.76 57.7049 27.5704 57.0447C26.3809 56.3845 24.0149 53.9465 23.6489 53.2928C23.2959 52.6457 23.2109 51.8156 23.126 50.979Z" fill="black"/>
<path d="M48.7463 40.0307C48.7528 39.3836 48.3019 38.3574 47.6679 37.7953C47.0273 37.2331 46.6613 36.9521 47.5045 35.9389C48.3411 34.9258 48.5437 33.5401 49.5568 33.4551C50.5698 33.3702 53.6156 32.8472 55.06 35.0892C56.511 37.3312 57.7855 38.828 59.5241 39.5862C61.2626 40.3445 65.6744 41.5079 69.0535 44.044C72.4326 46.5801 73.7071 47.894 73.7005 48.6326C73.694 49.3712 72.8574 49.8287 72.4849 50.4758C72.1058 51.1229 72.1907 51.953 72.8313 52.4302C73.4718 52.9008 73.7528 52.3452 73.8378 52.9073C73.9228 53.4629 73.9162 54.0185 72.7201 53.9139C71.5241 53.8094 70.1385 54.0708 68.4783 54.7964C66.8117 55.5219 65.0469 57.1691 64.7659 57.6331C64.4849 58.0907 50.5829 57.9469 50.5829 57.9469C50.5829 57.9469 50.511 55.9075 49.145 54.7767C47.7724 53.6525 47.8051 51.1491 48.1842 49.5738C48.5698 48.0051 48.7724 46.1487 48.7855 44.665C48.8051 43.1878 48.7463 40.0307 48.7463 40.0307Z" fill="black"/>
<path d="M24.8965 57.9469C24.8965 57.9469 53.72 57.0515 70.3736 57.9665C58.3083 58.581 33.635 58.5091 24.8965 57.9469Z" fill="black"/>
<path d="M31.8447 63.0324C31.8447 63.0324 52.6094 62.0519 64.6029 62.9147C55.9101 63.5618 38.1388 63.5618 31.8447 63.0324Z" fill="black"/>
<path d="M36.4395 68.3659C36.4395 68.3659 51.3218 67.307 59.91 68.1502C53.6747 68.83 40.9427 68.8823 36.4395 68.3659Z" fill="black"/>
<path d="M8.48535 68.9932C8.48535 68.9932 10.3808 72.3529 11.1193 72.6339C12.5899 73.1111 15.8906 73.8889 15.8906 73.8889L8.48535 68.9932Z" fill="black"/>
<path d="M13.9494 86.0861C15.6814 86.3802 20.1258 87.1515 25.4265 86.4129C32.25 85.4651 42.8579 83.3539 46.6291 83.5826C50.4003 83.8114 54.9036 84.8768 58.8513 85.7527C62.799 86.6286 68.1389 86.5894 68.1389 86.5894C68.1389 86.5894 62.6814 88.9425 59.6422 89.3739C56.5964 89.8053 55.1258 89.6941 55.8513 90.6288C56.5768 91.5635 57.6879 91.021 57.6879 91.021C57.6879 91.021 57.3023 92.8708 53.8971 92.5571C50.4918 92.2433 48.9363 91.3936 49.2892 92.7858C49.6422 94.1781 50.6487 94.7467 50.6487 94.7467C50.6487 94.7467 45.1389 93.2042 43.8644 92.2629C42.5833 91.3217 41.2108 90.5635 41.3807 91.6812C41.5507 92.7924 42.4592 93.9166 42.4592 93.9166C42.4592 93.9166 39.616 92.8643 38.2565 91.0929C36.8971 89.315 34.5245 86.8835 32.5899 87.2299C30.6552 87.5829 30.8252 88.8836 32.2892 89.5438C33.7533 90.2105 34.433 89.5896 36.0343 90.5831C37.6356 91.5766 36.6748 93.2761 36.6748 93.2761C36.6748 93.2761 36.0212 91.8315 35.4003 92.0603C34.7794 92.2825 34.0539 92.8773 32.7467 92.7009C31.4396 92.5244 29.5572 91.6485 28.0605 91.7269C26.5637 91.8054 23.9951 92.9819 23.2762 93.8578C22.5507 94.7271 21.5376 94.9951 20.616 95.1259C19.6945 95.2566 18.9624 96.7076 18.9624 96.7076C18.9624 96.7076 18.1389 96.237 17.9886 95.0278C17.8382 93.8186 19.0931 92.8839 19.7141 92.7074C20.335 92.5309 21.0343 91.9557 20.9886 91.655C20.9428 91.3544 19.9363 91.204 19.3807 91.5701C18.8252 91.9361 17.9951 92.178 17.2565 91.9426C16.5245 91.7008 16.6226 90.8445 15.8382 90.8641C15.0539 90.8772 14.3807 91.5439 14.3807 91.5439C14.3807 91.5439 14.6748 90.021 15.6683 89.5634C16.6618 89.1124 17.4657 89.5111 18.1781 89.5895C18.8905 89.668 19.4265 89.1843 19.2696 88.766C19.1128 88.3476 18.6552 87.9032 17.8513 87.9881C17.0474 88.0731 15.8056 88.0797 15.3284 87.4522C14.8513 86.8247 14.3742 86.5828 13.8644 86.6482C13.3546 86.7135 12.9624 87.2169 12.9624 87.2169C12.9624 87.2169 12.7729 85.8834 13.9494 86.0861Z" fill="black"/>
<path d="M75.8115 79.6018C75.8115 79.6018 77.9749 77.3991 78.8899 75.5297C82.5762 73.0655 88.0664 69.4378 89.1971 66.8821C90.3279 64.3198 91.4782 60.3 92.171 59.6855C92.2756 62.6792 92.3867 65.7382 89.9292 69.5358C87.4716 73.3335 84.7527 76.1572 82.3148 78.1442C79.8769 80.1313 77.7919 81.5039 77.7919 81.5039L75.8115 79.6018Z" fill="black"/>
<path d="M89.1644 63.7576C89.1644 63.7576 88.5043 60.9731 87.9945 60.3718C87.4847 59.777 86.7135 57.6135 86.452 56.2539C86.1906 54.8943 86.3344 54.5871 86.3344 54.5871C86.3344 54.5871 86.9422 55.8813 87.622 56.6199C88.3082 57.3585 89.0272 57.4697 88.7396 55.3127C88.452 53.1557 87.2233 51.7503 87.171 50.1881C87.1187 48.626 87.3932 48.5541 87.3932 48.5541C87.3932 48.5541 87.8638 49.7764 88.4389 50.6849C89.0141 51.5935 90.4912 52.3386 91.0141 51.9268C91.537 51.515 91.7657 49.3253 91.7396 48.4233C91.7135 47.5213 92.0664 43.7694 92.5043 41.619C92.9422 39.4685 93.1121 36.6187 93.1121 36.6187C93.1121 36.6187 94.1056 46.92 94.086 48.7959C94.0664 50.6718 94.184 52.4824 94.7331 52.9073C95.2821 53.3321 96.367 52.0183 96.6154 51.2928C96.8638 50.5673 97.8376 49.809 97.8376 49.809C97.8376 49.809 97.3671 52.0968 97.452 53.4171C97.5435 54.7375 96.3148 56.6395 96.2363 57.6135C96.1579 58.5874 96.9161 58.6266 97.6089 58.0775C98.3082 57.5285 99.9422 56.2604 99.9422 56.2604C99.9422 56.2604 99.2625 58.7246 98.4455 60.5221C97.635 62.3196 95.0337 64.7512 92.8834 65.6336C93.3867 61.9732 93.3736 57.6788 92.5174 57.0121C91.6612 56.3389 90.9553 60.3718 90.2886 61.4764C89.622 62.5811 89.1644 63.7576 89.1644 63.7576Z" fill="black"/>
<path fill-rule="evenodd" clip-rule="evenodd" d="M68.8506 80.3798L67.6087 79.3079C67.5238 79.236 67.4519 79.1902 67.4061 79.1771C67.3473 79.1575 67.2493 79.151 67.1185 79.151C66.8898 79.151 66.7264 79.1641 66.6349 79.1771C66.3604 79.2164 66.2296 79.3209 66.2296 79.4778C66.2296 79.5236 66.2493 79.5693 66.2754 79.602C66.3081 79.6347 66.3604 79.6739 66.4323 79.7066C66.4976 79.7393 66.5434 79.772 66.5695 79.8046C66.6022 79.8373 66.6218 79.8896 66.6414 79.9615C66.6937 80.1576 66.7198 80.4713 66.7264 80.8962C66.7329 81.2949 66.7198 81.6021 66.6937 81.8178C66.6806 81.9355 66.6349 82.0205 66.5564 82.0662C66.4715 82.1185 66.4192 82.1577 66.3996 82.1839C66.38 82.21 66.3669 82.2492 66.3669 82.3081C66.3669 82.4126 66.4257 82.4976 66.5499 82.5564C66.6741 82.6153 66.844 82.6414 67.0662 82.6414C67.5564 82.6349 67.7983 82.5172 67.7983 82.2884C67.7917 82.2035 67.7395 82.1316 67.6283 82.0793C67.5499 82.0401 67.4976 81.9812 67.4715 81.8963C67.4453 81.8113 67.4257 81.6544 67.4257 81.4256C67.4192 81.1511 67.4715 81.0073 67.5695 81.0073C67.6349 81.0073 67.7198 81.0531 67.8244 81.1446L69.3015 82.4519C69.3135 82.462 69.325 82.4718 69.336 82.4811C69.4027 82.5379 69.4509 82.5788 69.4845 82.5957C69.5172 82.6153 69.563 82.6283 69.6153 82.6283C69.7329 82.6283 69.8179 82.5499 69.8571 82.3865C69.8898 82.2558 69.9094 82.0466 69.9028 81.7525C69.9028 81.6298 69.9007 81.522 69.8989 81.4289C69.8975 81.3583 69.8963 81.2962 69.8963 81.2426L69.8898 80.4321C69.8898 80.1249 69.9094 79.9223 69.9551 79.8112C69.9682 79.7785 69.9813 79.7589 70.0009 79.7393C70.014 79.7197 70.0466 79.7001 70.0989 79.6804C70.2231 79.6216 70.2819 79.5366 70.2819 79.4321C70.2819 79.3013 70.2035 79.2164 70.0532 79.1706C69.9551 79.1445 69.7852 79.1314 69.5368 79.1314C69.3408 79.1314 69.21 79.1379 69.1316 79.1575C68.9421 79.1967 68.8506 79.2883 68.8506 79.4255C68.8506 79.4844 68.8636 79.5301 68.8898 79.5628C68.9159 79.5955 68.9617 79.6282 69.027 79.6608C69.1055 79.7001 69.1578 79.7523 69.1839 79.8308C69.21 79.9027 69.2231 80.0465 69.2231 80.2556C69.2296 80.4387 69.1839 80.5302 69.0989 80.5302C69.0466 80.5302 68.9682 80.4779 68.8506 80.3798ZM64.6872 77.8503C64.5695 77.7653 64.4846 77.7261 64.4323 77.7195C64.3212 77.7065 64.1316 77.7914 63.8636 77.9483C63.7198 78.0398 63.6153 78.1117 63.5564 78.1705C63.4976 78.2294 63.4649 78.2882 63.4584 78.3405C63.4519 78.3993 63.4649 78.4516 63.4976 78.4908C63.5303 78.5366 63.576 78.5562 63.6283 78.5627C63.7002 78.5693 63.831 78.5366 64.014 78.4581C64.1381 78.4058 64.2166 78.3732 64.2493 78.3666C64.2819 78.3601 64.3211 78.3536 64.3669 78.3601C64.4453 78.3666 64.5564 78.4189 64.7133 78.5104C64.9094 78.6346 65.0401 78.6934 65.1055 78.7C65.1512 78.7 65.197 78.6869 65.2362 78.6542C65.2754 78.6215 65.295 78.5758 65.3015 78.53C65.3015 78.4843 65.2885 78.432 65.2493 78.3732C65.21 78.3209 65.1381 78.2424 65.0336 78.1379C64.9159 78.0267 64.7983 77.9287 64.6872 77.8503ZM66.1512 77.3862C66.0401 77.3339 65.9094 77.2947 65.7591 77.2816C65.6414 77.2685 65.5434 77.2751 65.4649 77.2947C65.393 77.3143 65.3538 77.3404 65.3473 77.3862C65.3473 77.3992 65.3473 77.4123 65.3538 77.4254C65.3669 77.4581 65.3734 77.4842 65.3734 77.4973C65.3727 77.4994 65.372 77.5016 65.3713 77.5039C65.3653 77.5224 65.3582 77.5445 65.3408 77.5561C65.3376 77.5583 65.3337 77.5609 65.3291 77.564C65.3054 77.5802 65.2626 77.6093 65.197 77.6476C65.1055 77.7065 65.0532 77.7457 65.0336 77.7653C65.014 77.7849 65.0074 77.8176 65.0009 77.8633C64.9878 77.9875 65.0662 78.0594 65.2362 78.0725C65.5368 78.0986 65.8179 78.0333 66.0859 77.8633C66.2296 77.7718 66.3081 77.6868 66.3212 77.6149C66.3277 77.5757 66.3146 77.5365 66.2819 77.4908C66.2493 77.4515 66.2035 77.4123 66.1512 77.3862ZM64.2362 80.8831L63.7525 80.8374C63.6741 80.8308 63.6414 80.8047 63.6479 80.7655C63.6479 80.7328 63.6937 80.6347 63.7787 80.4713C63.8153 80.3929 63.8435 80.3396 63.8567 80.3147C63.86 80.3085 63.8623 80.304 63.8636 80.3014C63.9159 80.1968 63.9682 80.1445 64.027 80.1511C64.0597 80.1576 64.0924 80.1772 64.1185 80.2099C64.1447 80.2491 64.1839 80.3145 64.2296 80.419C64.3277 80.6413 64.38 80.7851 64.3734 80.8374C64.3734 80.8766 64.3212 80.8897 64.2362 80.8831ZM65.8636 81.7329L65.4911 80.687C65.1708 79.7916 64.9159 79.2425 64.7002 79.0333C64.563 78.8895 64.4061 78.8046 64.2427 78.7915C64.0662 78.7719 63.9159 78.8176 63.7917 78.9222C63.7329 78.968 63.6937 79.0203 63.6741 79.0726C63.6545 79.1248 63.6349 79.2229 63.6218 79.3667C63.6087 79.504 63.576 79.6347 63.5172 79.7719C63.4649 79.9092 63.3604 80.1118 63.2035 80.3798L62.7852 81.1119C62.661 81.3276 62.5695 81.4649 62.5107 81.5302C62.4519 81.5956 62.3669 81.6413 62.2558 81.6675C62.1904 81.6871 62.1381 81.7067 62.112 81.7329C62.0859 81.759 62.0728 81.7982 62.0662 81.8505C62.0532 81.9682 62.1055 82.0466 62.2166 82.0924C62.3408 82.1381 62.5303 82.1773 62.7983 82.2035C63.2623 82.2492 63.5042 82.1708 63.5238 81.9747C63.5368 81.8897 63.4911 81.8244 63.393 81.7852C63.3836 81.7809 63.3746 81.7768 63.3661 81.773C63.3097 81.7474 63.2737 81.7311 63.2623 81.7198C63.2493 81.7067 63.2427 81.6806 63.2493 81.6479C63.2493 81.6021 63.2623 81.5629 63.2885 81.5237C63.3146 81.4779 63.3408 81.4518 63.3669 81.4387C63.4127 81.4191 63.5434 81.4191 63.7591 81.4387C64.0205 81.4583 64.2166 81.491 64.3604 81.5237C64.4911 81.5564 64.5564 81.6283 64.5434 81.7394C64.5434 81.8048 64.4976 81.844 64.4192 81.8636C64.3473 81.8832 64.295 81.9028 64.2689 81.929C64.2427 81.9551 64.2296 81.9878 64.2231 82.0401C64.2166 82.1054 64.2362 82.1577 64.2819 82.21C64.3277 82.2623 64.393 82.295 64.4715 82.3211C64.6479 82.3669 64.9159 82.4061 65.2885 82.4453C65.6153 82.4715 65.8506 82.4715 66.0009 82.4322C66.1512 82.393 66.2296 82.3081 66.2427 82.1904C66.2558 82.0924 66.2035 82.027 66.0859 81.9943C66.027 81.9812 65.9813 81.9551 65.9551 81.9224C65.929 81.8963 65.8963 81.8309 65.8636 81.7329ZM61.8702 80.4713L61.9617 79.87C62.027 79.5105 62.0662 79.3013 62.0989 79.236C62.1185 79.1771 62.1774 79.1379 62.2689 79.0987C62.3604 79.066 62.4127 79.0399 62.4388 79.0203C62.4649 79.0007 62.478 78.968 62.4845 78.9222C62.4976 78.8307 62.4519 78.7523 62.3473 78.6869C62.2427 78.6281 62.0597 78.5758 61.8113 78.5366C61.5564 78.4974 61.3669 78.4908 61.2427 78.517C61.1185 78.5497 61.0466 78.6085 61.0336 78.7065C61.027 78.7523 61.0336 78.798 61.0597 78.8307C61.0859 78.8699 61.1381 78.9091 61.2166 78.9614C61.3015 79.0203 61.3408 79.0856 61.3473 79.1575C61.3473 79.2294 61.3211 79.4713 61.2689 79.8896L61.1839 80.4321C61.1643 80.5694 61.1381 80.674 61.112 80.7524C61.0859 80.8243 61.0401 80.8897 60.9878 80.9485C60.9159 81.0204 60.8244 81.0727 60.7133 81.1054C60.6022 81.138 60.478 81.1446 60.3473 81.125C60.1447 81.0923 59.9878 81.0073 59.8767 80.8635C59.7394 80.687 59.6937 80.4648 59.746 80.1837C59.7702 80.0495 59.7923 79.9286 59.812 79.821C59.8613 79.5512 59.8954 79.3649 59.9094 79.2621C59.929 79.1249 59.9551 79.0268 59.9813 78.968C60.0074 78.9091 60.0466 78.8699 60.1055 78.8569C60.197 78.8307 60.2493 78.8111 60.2623 78.8046C60.3146 78.7719 60.3473 78.7196 60.3604 78.6542C60.38 78.517 60.3081 78.4124 60.1381 78.347C59.9682 78.2817 59.746 78.2228 59.478 78.1836C59.2362 78.1444 59.0205 78.1313 58.8375 78.1379C58.746 78.1379 58.6741 78.164 58.6087 78.2032C58.5499 78.2424 58.5107 78.2947 58.5042 78.3601C58.4911 78.4451 58.5303 78.5366 58.6283 78.6215C58.6937 78.6804 58.7264 78.7392 58.7394 78.7915C58.7525 78.8503 58.746 78.9418 58.7264 79.0791C58.7223 79.1155 58.7108 79.1793 58.6949 79.2675C58.685 79.322 58.6735 79.3858 58.661 79.4582C58.6087 79.7327 58.576 79.9288 58.5564 80.0465C58.5107 80.3471 58.5042 80.589 58.5368 80.7589C58.5695 80.9289 58.6479 81.0858 58.7852 81.2361C59.0597 81.5368 59.4584 81.7263 59.9813 81.8048C60.2819 81.8505 60.5564 81.8505 60.8048 81.7982C61.2231 81.7198 61.5107 81.5302 61.6741 81.2296C61.746 81.0858 61.8179 80.8308 61.8702 80.4713ZM57.4715 77.8895L56.1904 77.6672C56.1185 77.6542 56.0532 77.6411 56.0074 77.6084C55.9551 77.5953 55.8832 77.5692 55.7983 77.5365C55.7591 77.5234 55.7198 77.5104 55.6872 77.5038C55.5695 77.4777 55.4323 77.543 55.2819 77.6868C55.1839 77.7718 55.1055 77.8764 55.0401 77.9875C54.9747 78.0986 54.9355 78.2098 54.9159 78.3078C54.8963 78.4124 54.9094 78.4974 54.9551 78.5758C54.9944 78.6542 55.0662 78.7 55.1512 78.7131C55.2296 78.7261 55.3146 78.7131 55.4061 78.6608C55.4845 78.6216 55.5957 78.53 55.7329 78.3797C55.8113 78.3013 55.8767 78.262 55.9421 78.2751C55.9944 78.2817 56.027 78.3209 56.0401 78.3862C56.0532 78.4516 56.0466 78.5562 56.0205 78.7065C55.9887 78.9102 55.9382 79.1511 55.8813 79.4232L55.8767 79.4451C55.8179 79.7327 55.7656 79.9354 55.7329 80.0596C55.6937 80.2034 55.661 80.2949 55.6283 80.3406C55.5957 80.3864 55.5499 80.4125 55.4845 80.419C55.4617 80.4219 55.4407 80.4245 55.4217 80.4268C55.3539 80.435 55.3118 80.4401 55.3015 80.4452C55.2362 80.4779 55.197 80.5236 55.1839 80.589C55.1578 80.7132 55.2231 80.8178 55.38 80.9027C55.563 81.0008 55.8571 81.0858 56.2558 81.1577C56.5826 81.2099 56.831 81.2296 57.0009 81.1969C57.1643 81.1642 57.2623 81.0923 57.2819 80.9746C57.2885 80.9158 57.2819 80.8701 57.2558 80.8308C57.2296 80.7916 57.1708 80.7459 57.0924 80.6936C57.0205 80.6413 56.9747 80.5825 56.9551 80.5171C56.9355 80.4517 56.9355 80.3406 56.9617 80.2033L57.197 78.8307C57.2231 78.7131 57.2493 78.6346 57.2819 78.5889C57.3211 78.5431 57.3669 78.5235 57.4257 78.5366C57.4715 78.5431 57.5042 78.5627 57.5303 78.6019C57.5564 78.6412 57.5891 78.7131 57.6218 78.8242C57.661 78.9484 57.7133 79.0399 57.7656 79.0987C57.8179 79.1575 57.8898 79.1967 57.9747 79.2098C58.0662 79.2229 58.1512 79.2164 58.2231 79.1771C58.3211 79.1248 58.38 79.0333 58.4061 78.8895C58.4388 78.6869 58.4127 78.4712 58.3211 78.2555C58.2296 78.0398 58.1185 77.9222 57.9878 77.896C57.9551 77.8895 57.9094 77.8895 57.8571 77.896C57.7394 77.9091 57.6087 77.9091 57.4715 77.8895ZM52.563 77.0724C52.3604 76.9286 52.1381 76.8371 51.9028 76.7914C51.6545 76.7456 51.3996 76.7521 51.1185 76.8306C50.7852 76.909 50.4976 77.0659 50.2558 77.2881C49.9813 77.543 49.8113 77.8568 49.746 78.2163C49.6937 78.5235 49.7264 78.8372 49.8571 79.1575C49.9878 79.4843 50.197 79.7458 50.4845 79.9419C50.7329 80.1118 50.9944 80.223 51.2623 80.2687C51.5238 80.3145 51.7787 80.3014 52.0401 80.2295C52.1512 80.1968 52.2362 80.1837 52.3015 80.1837C52.4127 80.1837 52.4846 80.1707 52.5238 80.1511C52.6153 80.0988 52.7002 80.0138 52.7787 79.9092C52.8571 79.8046 52.9029 79.7001 52.9225 79.6085C52.9355 79.5366 52.929 79.4647 52.8963 79.4059C52.8636 79.3471 52.8244 79.3144 52.7656 79.3013C52.7264 79.2948 52.6741 79.3144 52.6022 79.3602C52.5172 79.419 52.4061 79.4582 52.2689 79.4778C52.1381 79.4974 52.0009 79.4974 51.8702 79.4713C51.5107 79.4059 51.2689 79.2033 51.1316 78.8569C51.0336 78.5954 51.0074 78.3274 51.0597 78.0464C51.0989 77.8437 51.1774 77.6868 51.295 77.5823C51.4192 77.4777 51.5564 77.4385 51.7264 77.4711C51.8963 77.5038 52.0532 77.5888 52.1904 77.7261C52.2427 77.7849 52.2885 77.8437 52.3211 77.9091C52.3538 77.9744 52.393 78.0725 52.4388 78.2163C52.4715 78.3143 52.5107 78.3862 52.5564 78.432C52.6022 78.4777 52.661 78.5104 52.746 78.5235C52.8375 78.5431 52.929 78.5366 53.0074 78.4974C53.1577 78.4255 53.2558 78.2947 53.2885 78.0986C53.3408 77.8176 53.3081 77.5692 53.1839 77.3535C53.1316 77.262 53.0662 77.2097 52.9813 77.1966C52.9551 77.1901 52.929 77.1901 52.9094 77.1901C52.844 77.1901 52.7917 77.1901 52.7656 77.1835C52.7264 77.177 52.6545 77.1378 52.563 77.0724ZM49.2341 76.5911C49.2236 76.5973 49.2136 76.6033 49.2035 76.6083C49.2035 76.5168 49.1904 76.4515 49.1708 76.4123C49.1251 76.3273 49.0205 76.2881 48.8636 76.2881C48.6087 76.2619 48.4192 76.2685 48.295 76.3011C48.1708 76.3338 48.1055 76.3992 48.0989 76.4972C48.0924 76.543 48.1055 76.5822 48.1316 76.6149C48.1578 76.6476 48.2166 76.6868 48.295 76.7325C48.38 76.7783 48.4323 76.8437 48.4388 76.9156C48.4453 76.994 48.4388 77.2358 48.4061 77.6542L48.3538 78.1967C48.3408 78.3339 48.3277 78.4385 48.3015 78.517C48.2754 78.5954 48.2427 78.6673 48.1904 78.7261C48.1251 78.8046 48.0401 78.8634 47.929 78.9026C47.8179 78.9418 47.6937 78.9549 47.563 78.9418C47.3538 78.9222 47.1904 78.8503 47.0728 78.7131C46.9225 78.5431 46.8702 78.3209 46.9028 78.0398C46.9282 77.8084 46.9505 77.6169 46.9682 77.4647C46.987 77.3031 47.0007 77.1857 47.0074 77.1116C47.0205 76.9678 47.0401 76.8698 47.0662 76.811C47.0924 76.7522 47.1316 76.7129 47.1839 76.6933C47.2754 76.6606 47.3277 76.6345 47.3408 76.628C47.393 76.5953 47.4257 76.543 47.4323 76.4711C47.4453 76.3338 47.3669 76.2358 47.197 76.1769C47.0205 76.1181 46.7983 76.0789 46.5303 76.0528C46.2885 76.0266 46.0728 76.0266 45.8898 76.0462C45.7983 76.0528 45.7198 76.0789 45.661 76.1247C45.6022 76.1704 45.5695 76.2227 45.563 76.2881C45.5499 76.3796 45.6022 76.4645 45.7002 76.543C45.7656 76.5953 45.8048 76.6541 45.8179 76.7064C45.8375 76.7652 45.8375 76.8567 45.8244 76.994C45.8179 77.0594 45.8048 77.1835 45.7787 77.3796C45.7558 77.5714 45.7394 77.7281 45.7271 77.8452C45.7218 77.8958 45.7173 77.939 45.7133 77.9744C45.6806 78.2817 45.6872 78.517 45.7329 78.6869C45.7787 78.8569 45.8702 79.0137 46.014 79.151C46.3081 79.4321 46.7198 79.5955 47.2427 79.6478C47.5434 79.6739 47.8179 79.6543 48.0662 79.5889C48.4715 79.4844 48.7525 79.2752 48.8963 78.968C48.9682 78.8242 49.0205 78.5693 49.0532 78.2032L49.112 77.6019C49.1316 77.36 49.1512 77.1835 49.1708 77.079C49.1774 77.0071 49.1839 76.9417 49.1904 76.8829C49.2558 76.8763 49.3277 76.8437 49.4127 76.7914C49.4976 76.7391 49.5826 76.6737 49.661 76.5887C49.7394 76.5038 49.7983 76.4253 49.8375 76.3469C49.9028 76.2096 49.929 76.0724 49.9028 75.9416C49.8898 75.8893 49.8636 75.8371 49.831 75.7913C49.7983 75.7455 49.7525 75.7129 49.7068 75.6867C49.6087 75.641 49.5042 75.6344 49.393 75.6736C49.3081 75.7129 49.2427 75.7717 49.197 75.8567C49.1447 75.9678 49.1381 76.0789 49.1839 76.19C49.197 76.2292 49.2296 76.275 49.2819 76.3338C49.3277 76.36 49.3538 76.4057 49.3538 76.4515C49.3538 76.5038 49.3342 76.5364 49.2885 76.5626C49.2684 76.5706 49.2507 76.5811 49.2341 76.5911ZM48.4061 75.2422C48.295 75.19 48.1643 75.1507 48.014 75.1377C47.8963 75.1246 47.7983 75.1311 47.7198 75.1507C47.6479 75.1703 47.6087 75.1965 47.6022 75.2422C47.6022 75.2553 47.6022 75.2684 47.6087 75.2815C47.6218 75.3141 47.6283 75.3403 47.6283 75.3534C47.6276 75.3555 47.6269 75.3577 47.6262 75.36C47.6202 75.3785 47.6131 75.4005 47.5957 75.4122C47.5925 75.4143 47.5886 75.417 47.584 75.4201C47.5603 75.4363 47.5175 75.4654 47.4519 75.5037C47.3604 75.5625 47.3081 75.6017 47.2885 75.6214C47.2689 75.6475 47.2623 75.6737 47.2558 75.7194C47.2427 75.8436 47.3211 75.9155 47.4911 75.9286C47.7917 75.9547 48.0728 75.8894 48.3408 75.7194C48.4845 75.6279 48.563 75.5429 48.5761 75.471C48.5826 75.4318 48.5695 75.3926 48.5368 75.3468C48.5042 75.3011 48.4584 75.2684 48.4061 75.2422ZM42.6676 77.628L42.6218 76.9417C42.6153 76.8698 42.6283 76.8175 42.6414 76.7783C42.6741 76.7456 42.7264 76.726 42.8048 76.7195C43.0924 76.6999 43.3146 76.811 43.4519 77.0463C43.576 77.2555 43.6545 77.5692 43.6806 77.9744C43.7329 78.7065 43.5172 79.0922 43.0401 79.1248C42.9355 79.1314 42.8571 79.1118 42.8113 79.0726C42.7656 79.0333 42.7394 78.9614 42.7329 78.8569L42.6937 78.2424C42.6872 78.1444 42.7068 78.0921 42.7525 78.0921L42.8048 78.0986L43.0989 78.0725C43.21 78.0594 43.2558 77.9941 43.2493 77.8764C43.2493 77.811 43.2296 77.7653 43.2035 77.7391C43.1774 77.713 43.1316 77.6999 43.0728 77.7065L42.7656 77.7261C42.7264 77.7326 42.7002 77.7261 42.6872 77.713C42.6806 77.6999 42.6676 77.6738 42.6676 77.628ZM41.4388 77.8176L41.2689 77.8306C41.21 77.8306 41.1643 77.8503 41.1447 77.8895C41.1251 77.9222 41.112 77.9745 41.1185 78.0464C41.1251 78.1117 41.1381 78.1575 41.1643 78.1836C41.1839 78.2098 41.2296 78.2228 41.295 78.2163L41.4584 78.2032C41.4911 78.2032 41.5172 78.2032 41.5303 78.2163C41.5434 78.2294 41.5499 78.249 41.5499 78.2817C41.5499 78.3209 41.5499 78.4385 41.5564 78.6215V78.9614C41.5499 79.0726 41.5368 79.1445 41.5172 79.1837C41.4976 79.2229 41.4584 79.2556 41.393 79.2752C41.3277 79.2948 41.2754 79.3275 41.2493 79.3602C41.2231 79.3928 41.21 79.4386 41.2166 79.4974C41.2231 79.5824 41.2623 79.6478 41.3342 79.6935C41.4061 79.7393 41.4976 79.7589 41.6087 79.7523C41.6349 79.7523 41.6937 79.7458 41.7721 79.7327C41.8963 79.7131 42.014 79.7 42.1185 79.6935L42.295 79.6804C42.4453 79.6674 42.6153 79.6608 42.8179 79.6543L43.0728 79.6412L43.3734 79.6281C43.5957 79.6085 43.8048 79.5628 43.9944 79.4843C44.3211 79.3471 44.5695 79.1314 44.7394 78.8438C44.9225 78.53 44.9943 78.164 44.9682 77.7457C44.9486 77.3927 44.8506 77.0855 44.6872 76.8306C44.5042 76.543 44.2427 76.3404 43.9094 76.2358C43.6872 76.1639 43.38 76.1443 42.9944 76.1704C42.9159 76.1769 42.8375 76.1835 42.7787 76.19C42.4845 76.2292 42.2231 76.2554 41.9878 76.2685C41.9493 76.2723 41.8996 76.2739 41.8371 76.2759C41.7935 76.2773 41.7436 76.2788 41.6872 76.2815C41.6218 76.2815 41.5695 76.2815 41.5238 76.2881C41.3865 76.3011 41.2754 76.3273 41.2035 76.3796C41.1251 76.4253 41.0924 76.4972 41.0989 76.5757C41.1055 76.6802 41.1643 76.7521 41.2819 76.7848C41.3604 76.8044 41.4127 76.8371 41.4388 76.8829C41.4649 76.9286 41.4845 77.0201 41.4911 77.1574C41.5042 77.3077 41.5107 77.4319 41.5107 77.5104C41.5107 77.6019 41.5107 77.6607 41.5172 77.6934L41.5238 77.7457C41.5238 77.7718 41.5238 77.7914 41.5107 77.798C41.4976 77.811 41.478 77.8176 41.4388 77.8176ZM37.6479 76.9417C37.4519 76.909 37.2427 76.9156 37.0336 76.9548C36.6937 77.0136 36.4061 77.1378 36.1577 77.3404C35.8832 77.5496 35.6872 77.811 35.5695 78.1248C35.4584 78.4189 35.4257 78.7131 35.478 79.0072C35.5303 79.2948 35.6414 79.5562 35.8179 79.785C36.027 80.0595 36.3015 80.2556 36.6349 80.3668C36.9617 80.4779 37.3015 80.504 37.6545 80.4387C37.8702 80.3994 38.0728 80.3341 38.2558 80.2295C38.4453 80.1314 38.5957 80.0073 38.7133 79.8635C38.8832 79.6478 38.9813 79.4124 39.0074 79.1379C39.014 79.066 39.027 79.0203 39.0401 79.0007C39.0532 78.981 39.0924 78.9614 39.1447 78.9418C39.21 78.9222 39.2558 78.8895 39.2885 78.8372C39.3211 78.785 39.3342 78.7327 39.3211 78.6738C39.3015 78.53 39.1904 78.4451 39.0074 78.4189C38.8113 78.3928 38.576 78.4058 38.3015 78.4516C38.0466 78.4908 37.8244 78.5627 37.6414 78.6608C37.478 78.7457 37.3996 78.8569 37.4257 78.9941C37.4388 79.0595 37.4715 79.1118 37.5238 79.151C37.576 79.1902 37.6349 79.2033 37.7068 79.1902C37.7852 79.1771 37.8375 79.1706 37.8506 79.1706C37.8636 79.1706 37.8832 79.1706 37.9028 79.1837C37.9551 79.2098 37.9878 79.2621 38.0009 79.3405C38.014 79.4255 38.0009 79.504 37.9551 79.5693C37.9159 79.6347 37.8506 79.6739 37.7656 79.687C37.661 79.7066 37.5499 79.6935 37.4388 79.6543C37.3277 79.6151 37.2231 79.5497 37.1316 79.4647C36.8832 79.2294 36.7264 78.9157 36.661 78.5235C36.6153 78.262 36.6414 78.0398 36.7394 77.8633C36.8375 77.6869 36.9944 77.5823 37.2035 77.543C37.4388 77.5038 37.661 77.5757 37.8767 77.7653C38.0074 77.8829 38.0859 77.9418 38.1185 77.9614C38.2231 78.0137 38.3211 78.0333 38.4126 78.0137C38.5238 77.9941 38.6153 77.9352 38.6676 77.8372C38.7198 77.7391 38.7394 77.6149 38.7133 77.4777C38.6741 77.2751 38.576 77.0986 38.4126 76.9482C38.3146 76.8567 38.2166 76.8175 38.1251 76.8306C38.0859 76.8306 38.0532 76.8437 38.0205 76.8633C37.9225 76.9156 37.8571 76.9482 37.8244 76.9548C37.7983 76.9613 37.7394 76.9548 37.6479 76.9417ZM33.7656 78.8307L32.3604 77.9875C32.2849 77.9444 32.2184 77.9146 32.157 77.8872C32.144 77.8813 32.1312 77.8756 32.1185 77.8699C32.0597 77.8568 31.9617 77.8633 31.831 77.8895C31.6022 77.9352 31.4453 77.9679 31.3604 78.0006C31.0989 78.0921 30.9878 78.2163 31.014 78.3732C31.0205 78.4255 31.0466 78.4647 31.0793 78.4908C31.112 78.5235 31.1708 78.5496 31.2493 78.5693C31.3211 78.5889 31.3734 78.615 31.4061 78.6412C31.4388 78.6738 31.4715 78.7196 31.5042 78.785C31.5891 78.9745 31.6676 79.2752 31.746 79.6935C31.8179 80.0922 31.8571 80.3929 31.8702 80.6086C31.8767 80.7263 31.844 80.8178 31.7787 80.8766C31.7068 80.942 31.6676 80.9877 31.6479 81.0204C31.6283 81.0531 31.6218 81.0988 31.6349 81.1511C31.6545 81.2622 31.7329 81.3341 31.8636 81.3668C31.9944 81.406 32.1708 81.3995 32.3865 81.3603C32.8702 81.2688 33.0859 81.1119 33.0466 80.8831C33.027 80.7916 32.9617 80.7328 32.844 80.7001C32.7591 80.674 32.6937 80.6217 32.6545 80.5432C32.6153 80.4648 32.5695 80.3145 32.5303 80.0857C32.478 79.8112 32.5042 79.6674 32.6022 79.6478C32.6676 79.6347 32.7591 79.6674 32.8767 79.7393L34.5499 80.772C34.6479 80.8308 34.7198 80.8701 34.7591 80.8831C34.7983 80.8962 34.844 80.8962 34.8963 80.8897C35.014 80.8701 35.0793 80.772 35.0924 80.6086C35.1055 80.4779 35.0859 80.2687 35.0336 79.9811C35.0226 79.9226 35.0121 79.8677 35.0023 79.8162C34.9771 79.6836 34.9562 79.5738 34.9421 79.4843L34.7983 78.6869C34.746 78.3862 34.7264 78.1836 34.7525 78.066C34.7591 78.0267 34.7721 78.0006 34.7852 77.981C34.8048 77.9614 34.831 77.9418 34.8767 77.9091C34.9878 77.8306 35.0336 77.7391 35.014 77.6346C34.9944 77.5104 34.9028 77.4385 34.746 77.4189C34.6479 77.4123 34.4715 77.4254 34.2296 77.4711C34.0401 77.5038 33.9094 77.5365 33.8375 77.5692C33.661 77.6411 33.5826 77.7457 33.6087 77.8829C33.6218 77.9418 33.6414 77.981 33.6741 78.0137C33.7068 78.0398 33.7525 78.066 33.8244 78.0856C33.9094 78.1117 33.9682 78.1575 34.0074 78.2294C34.0401 78.3013 34.0793 78.4385 34.1185 78.6412C34.1512 78.8242 34.1251 78.9222 34.0401 78.9353C33.9878 78.9418 33.8963 78.9091 33.7656 78.8307ZM29.1904 80.4648L28.7133 80.5432C28.6414 80.5563 28.6022 80.5432 28.6022 80.4975C28.5957 80.4648 28.6153 80.3602 28.6545 80.1837C28.6741 80.0792 28.6872 80.0138 28.6937 80.0007C28.7133 79.8831 28.7525 79.8242 28.8113 79.8112C28.844 79.8046 28.8767 79.8177 28.9094 79.8439C28.9421 79.8765 28.9944 79.9354 29.0662 80.0203C29.2231 80.2099 29.3081 80.3341 29.3146 80.3864C29.3211 80.4256 29.2754 80.4517 29.1904 80.4648ZM30.9813 80.8701L30.3604 79.955C29.8244 79.1706 29.4388 78.7065 29.2166 78.5758C29.0466 78.4712 28.8767 78.432 28.7133 78.4581C28.5434 78.4843 28.4061 78.5693 28.3146 78.7C28.2689 78.7588 28.2427 78.8176 28.2362 78.8765C28.2296 78.9288 28.2362 79.0268 28.2558 79.1706C28.2754 79.3079 28.2754 79.4451 28.2558 79.5889C28.2362 79.7327 28.1839 79.955 28.1055 80.2556L27.8832 81.0727C27.8179 81.308 27.7656 81.4649 27.7198 81.5433C27.6741 81.6152 27.6022 81.6871 27.5042 81.7394C27.4388 81.7721 27.3996 81.8048 27.38 81.8374C27.3604 81.8701 27.3538 81.9093 27.3604 81.9616C27.38 82.0793 27.4519 82.1446 27.5695 82.1577C27.7002 82.1773 27.8963 82.1643 28.1578 82.1185C28.6218 82.0466 28.8375 81.9093 28.8048 81.7133C28.7917 81.6283 28.7329 81.576 28.6283 81.5629C28.5499 81.5498 28.4976 81.5368 28.4845 81.5302C28.4649 81.5237 28.4584 81.4975 28.4519 81.4649C28.4453 81.4256 28.4453 81.3799 28.4584 81.3341C28.4715 81.2884 28.4845 81.2557 28.5107 81.2361C28.5499 81.2034 28.6741 81.1642 28.8898 81.1315C29.1447 81.0858 29.3473 81.0662 29.4911 81.0596C29.6283 81.0596 29.7002 81.1119 29.7198 81.223C29.7329 81.2819 29.7002 81.3341 29.6283 81.3734C29.563 81.406 29.5172 81.4387 29.4976 81.4714C29.478 81.4975 29.4715 81.5368 29.478 81.5891C29.4911 81.6544 29.5172 81.7002 29.5761 81.7394C29.6349 81.7786 29.7002 81.7982 29.7852 81.7982C29.9682 81.7982 30.2427 81.7655 30.6087 81.7067C30.929 81.6479 31.1577 81.5891 31.295 81.5106C31.4257 81.4322 31.4845 81.3341 31.4649 81.2165C31.4519 81.1119 31.38 81.0661 31.2623 81.0661C31.2035 81.0727 31.1512 81.0596 31.1185 81.0335C31.0859 81.0073 31.0401 80.955 30.9813 80.8701ZM25.014 79.2164C25.0009 79.0072 24.7329 78.9222 24.2231 78.9614C24.027 78.981 23.831 79.0137 23.6153 79.0595C23.4331 79.1126 23.3061 79.1789 23.2341 79.2572C23.2325 79.259 23.2308 79.2608 23.2293 79.2626C23.1806 79.3178 23.159 79.3787 23.1643 79.4451M25.014 79.2164C25.0205 79.2752 25.0074 79.3209 24.9878 79.3602L25.014 79.2164ZM24.9878 79.3602C24.9617 79.3994 24.9159 79.4451 24.8506 79.4909L24.9878 79.3602ZM24.8506 79.4909C24.7917 79.5366 24.7525 79.5889 24.7394 79.6543L24.8506 79.4909ZM24.7394 79.6543C24.7264 79.7197 24.7329 79.8504 24.746 80.0465L24.7394 79.6543ZM24.746 80.0465C24.7525 80.1641 24.7787 80.2295 24.8244 80.2556L24.746 80.0465ZM24.8244 80.2556C24.8506 80.2687 24.8898 80.2752 24.9355 80.2752L24.8244 80.2556ZM24.9355 80.2752C24.9878 80.2752 25.1055 80.2687 25.2885 80.2491L24.9355 80.2752ZM25.2885 80.2491C25.4584 80.236 25.563 80.2164 25.6022 80.1968L25.2885 80.2491ZM25.6022 80.1968C25.6414 80.1772 25.661 80.1314 25.6545 80.053L25.6022 80.1968ZM25.6545 80.053C25.6349 79.8373 25.6153 79.687 25.5891 79.602L25.6545 80.053ZM25.5891 79.602C25.563 79.517 25.5172 79.4647 25.4584 79.4386L25.5891 79.602ZM25.4584 79.4386C25.38 79.4059 25.3342 79.3732 25.3081 79.3471L25.4584 79.4386ZM25.3081 79.3471C25.2819 79.3209 25.2689 79.2817 25.2623 79.236L25.3081 79.3471ZM25.2623 79.236C25.2558 79.1706 25.2754 79.1052 25.3211 79.0464L25.2623 79.236ZM25.3211 79.0464C25.3669 78.9876 25.4323 78.9418 25.5107 78.9157L25.3211 79.0464ZM25.5107 78.9157C25.6806 78.8634 25.8898 78.8242 26.1447 78.798L25.5107 78.9157ZM26.1447 78.798C26.4453 78.7719 26.6676 78.785 26.8179 78.8242L26.1447 78.798ZM26.8179 78.8242C26.9682 78.8699 27.0466 78.9484 27.0532 79.066L26.8179 78.8242ZM27.0532 79.066C27.0597 79.1641 27.014 79.2425 26.9159 79.3013L27.0532 79.066ZM26.9159 79.3013C26.8571 79.334 26.8179 79.3667 26.7983 79.3994L26.9159 79.3013ZM26.7983 79.3994C26.7787 79.4321 26.7721 79.4778 26.7656 79.5562L26.7983 79.3994ZM26.7656 79.5562C26.7591 79.5955 26.7656 79.7785 26.7852 80.1053L26.7656 79.5562ZM26.7852 80.1053C26.7959 80.3741 26.8111 80.5942 26.8234 80.773L26.7852 80.1053ZM26.8234 80.773C26.8261 80.8116 26.8286 80.8483 26.8309 80.8831L26.8234 80.773ZM26.8309 80.8831C26.8571 81.2165 26.8898 81.4322 26.9225 81.5172L26.8309 80.8831ZM26.9225 81.5172C26.9239 81.5205 26.9253 81.5238 26.9267 81.527L26.9225 81.5172ZM26.9267 81.527C26.944 81.5676 26.9566 81.597 26.9747 81.6152L26.9267 81.527ZM26.9747 81.6152C26.9943 81.6283 27.0466 81.661 27.1381 81.7002L26.9747 81.6152ZM27.1381 81.7002C27.2035 81.7329 27.2362 81.7786 27.2427 81.8505L27.1381 81.7002ZM27.2427 81.8505C27.2558 81.9747 27.1839 82.0727 27.0401 82.1446L27.2427 81.8505ZM27.0401 82.1446C26.8963 82.2165 26.661 82.2623 26.3277 82.2884L27.0401 82.1446ZM26.3277 82.2884C26.0336 82.3146 25.8179 82.3015 25.6741 82.2558L26.3277 82.2884ZM25.6741 82.2558C25.5434 82.2166 25.4715 82.1381 25.4649 82.027L25.6741 82.2558ZM25.4649 82.027C25.4584 81.9355 25.4976 81.857 25.5891 81.7917L25.4649 82.027ZM25.5891 81.7917C25.6349 81.759 25.6676 81.7329 25.6806 81.7067L25.5891 81.7917ZM25.6806 81.7067C25.6937 81.6806 25.7068 81.6283 25.7198 81.5564L25.6806 81.7067ZM25.7198 81.5564C25.7394 81.4126 25.7394 81.2426 25.7198 81.04V81.5564ZM25.7198 81.04C25.7133 80.9354 25.6937 80.8701 25.661 80.8504L25.7198 81.04ZM25.661 80.8504C25.6283 80.8308 25.5499 80.8243 25.4192 80.8308L25.661 80.8504ZM25.4192 80.8308C25.1251 80.857 24.9421 80.8831 24.8636 80.9289L25.4192 80.8308ZM24.8636 80.9289C24.831 80.942 24.8113 80.9877 24.8113 81.0531L24.8636 80.9289ZM24.8113 81.0531C24.8054 81.1249 24.8103 81.2131 24.8162 81.3178L24.8113 81.0531ZM24.8162 81.3178C24.8168 81.3274 24.8173 81.3372 24.8179 81.3472L24.8162 81.3178ZM24.8179 81.3472C24.831 81.5368 24.8702 81.6675 24.929 81.7459L24.8179 81.3472ZM24.929 81.7459C24.9486 81.7721 24.9943 81.7982 25.0662 81.8374L24.929 81.7459ZM25.0662 81.8374C25.1381 81.8701 25.1774 81.9355 25.1839 82.027L25.0662 81.8374ZM25.1839 82.027C25.1904 82.1446 25.1185 82.2362 24.9682 82.3081L25.1839 82.027ZM24.9682 82.3081C24.8113 82.38 24.5891 82.4323 24.295 82.4584L24.9682 82.3081ZM24.295 82.4584C24.027 82.478 23.8048 82.4715 23.6283 82.4257L24.295 82.4584ZM23.6283 82.4257C23.5564 82.4061 23.4911 82.3734 23.4453 82.3342L23.6283 82.4257ZM23.4453 82.3342C23.3996 82.295 23.3734 82.2427 23.3669 82.1904L23.4453 82.3342ZM23.3669 82.1904C23.3604 82.1381 23.3734 82.0924 23.393 82.0597L23.3669 82.1904ZM23.393 82.0597C23.4192 82.027 23.4715 81.9878 23.5564 81.929L23.393 82.0597ZM23.5564 81.929C23.6022 81.9028 23.6283 81.8701 23.6479 81.8309L23.5564 81.929ZM23.6479 81.8309C23.661 81.7917 23.6741 81.7329 23.6741 81.6414L23.6479 81.8309ZM23.6741 81.6414C23.6806 81.4453 23.6741 81.1903 23.6479 80.8831L23.6741 81.6414ZM23.6479 80.8831C23.6414 80.8243 23.6349 80.7589 23.6283 80.6805L23.6479 80.8831ZM23.6283 80.6805C23.6062 80.455 23.5903 80.286 23.5794 80.171L23.6283 80.6805ZM23.5794 80.171C23.5711 80.0827 23.5658 80.0263 23.563 80.0007L23.5794 80.171ZM23.563 80.0007C23.5499 79.8569 23.5368 79.7654 23.5042 79.7262L23.563 80.0007ZM23.5042 79.7262C23.478 79.6804 23.4061 79.6412 23.2885 79.5955L23.5042 79.7262ZM23.2885 79.5955C23.234 79.5757 23.1945 79.5408 23.1757 79.4938L23.2885 79.5955Z" fill="#FCFCFC"/>
<path d="M25.014 79.2164C25.0009 79.0072 24.7329 78.9222 24.2231 78.9614C24.027 78.981 23.831 79.0137 23.6153 79.0595C23.4331 79.1126 23.3061 79.1789 23.2341 79.2572C23.2398 79.279 23.2427 79.3024 23.2427 79.3275C23.2427 79.3912 23.2209 79.4476 23.1757 79.4938C23.1945 79.5408 23.234 79.5757 23.2885 79.5955C23.4061 79.6412 23.478 79.6804 23.5042 79.7262C23.5368 79.7654 23.5499 79.8569 23.563 80.0007C23.5658 80.0263 23.5711 80.0827 23.5794 80.171C23.5903 80.286 23.6062 80.455 23.6283 80.6805C23.6349 80.7589 23.6414 80.8243 23.6479 80.8831C23.6741 81.1903 23.6806 81.4453 23.6741 81.6414C23.6741 81.7329 23.661 81.7917 23.6479 81.8309C23.6283 81.8701 23.6022 81.9028 23.5564 81.929C23.4715 81.9878 23.4192 82.027 23.393 82.0597C23.3734 82.0924 23.3604 82.1381 23.3669 82.1904C23.3734 82.2427 23.3996 82.295 23.4453 82.3342C23.4911 82.3734 23.5564 82.4061 23.6283 82.4257C23.8048 82.4715 24.027 82.478 24.295 82.4584C24.5891 82.4323 24.8113 82.38 24.9682 82.3081C25.1185 82.2362 25.1904 82.1446 25.1839 82.027C25.1774 81.9355 25.1381 81.8701 25.0662 81.8374C24.9943 81.7982 24.9486 81.7721 24.929 81.7459C24.8702 81.6675 24.831 81.5368 24.8179 81.3472L24.8162 81.3178C24.8103 81.2131 24.8054 81.1249 24.8113 81.0531C24.8113 80.9877 24.831 80.942 24.8636 80.9289C24.9421 80.8831 25.1251 80.857 25.4192 80.8308C25.5499 80.8243 25.6283 80.8308 25.661 80.8504C25.6937 80.8701 25.7133 80.9354 25.7198 81.04C25.7394 81.2426 25.7394 81.4126 25.7198 81.5564C25.7068 81.6283 25.6937 81.6806 25.6806 81.7067C25.6676 81.7329 25.6349 81.759 25.5891 81.7917C25.4976 81.857 25.4584 81.9355 25.4649 82.027C25.4715 82.1381 25.5434 82.2166 25.6741 82.2558C25.8179 82.3015 26.0336 82.3146 26.3277 82.2884C26.661 82.2623 26.8963 82.2165 27.0401 82.1446C27.1839 82.0727 27.2558 81.9747 27.2427 81.8505C27.2362 81.7786 27.2035 81.7329 27.1381 81.7002C27.0466 81.661 26.9943 81.6283 26.9747 81.6152C26.9566 81.597 26.944 81.5676 26.9267 81.527L26.9225 81.5172C26.8898 81.4322 26.8571 81.2165 26.8309 80.8831L26.8234 80.773C26.8111 80.5942 26.7959 80.3741 26.7852 80.1053C26.7656 79.7785 26.7591 79.5955 26.7656 79.5562C26.7721 79.4778 26.7787 79.4321 26.7983 79.3994C26.8179 79.3667 26.8571 79.334 26.9159 79.3013C27.014 79.2425 27.0597 79.1641 27.0532 79.066C27.0466 78.9484 26.9682 78.8699 26.8179 78.8242C26.6676 78.785 26.4453 78.7719 26.1447 78.798C25.8898 78.8242 25.6806 78.8634 25.5107 78.9157C25.4323 78.9418 25.3669 78.9876 25.3211 79.0464C25.2754 79.1052 25.2558 79.1706 25.2623 79.236C25.2689 79.2817 25.2819 79.3209 25.3081 79.3471C25.3342 79.3732 25.38 79.4059 25.4584 79.4386C25.5172 79.4647 25.563 79.517 25.5891 79.602C25.6153 79.687 25.6349 79.8373 25.6545 80.053C25.661 80.1314 25.6414 80.1772 25.6022 80.1968C25.563 80.2164 25.4584 80.236 25.2885 80.2491C25.1055 80.2687 24.9878 80.2752 24.9355 80.2752C24.8898 80.2752 24.8506 80.2687 24.8244 80.2556C24.7787 80.2295 24.7525 80.1641 24.746 80.0465C24.7329 79.8504 24.7264 79.7197 24.7394 79.6543C24.7525 79.5889 24.7917 79.5366 24.8506 79.4909C24.9159 79.4451 24.9617 79.3994 24.9878 79.3602C25.0074 79.3209 25.0205 79.2752 25.014 79.2164Z" fill="#FCFCFC"/>
<path d="M21.8113 80.2752L20.576 79.2033C20.4911 79.1314 20.4192 79.0856 20.3669 79.066C20.3081 79.0464 20.21 79.0399 20.0793 79.0399C19.8506 79.0464 19.6872 79.0529 19.5957 79.066C19.3211 79.1052 19.1904 79.2098 19.1904 79.3667C19.1904 79.4124 19.21 79.4582 19.2362 79.4909C19.2689 79.5236 19.3211 79.5628 19.393 79.5955C19.4584 79.6281 19.5042 79.6608 19.5303 79.6935C19.563 79.7262 19.5826 79.7785 19.6022 79.8504C19.6545 80.0465 19.6806 80.3602 19.6872 80.7851C19.6937 81.1838 19.6806 81.491 19.6545 81.7067C19.6414 81.8244 19.5957 81.9093 19.5172 81.9551C19.4323 82.0074 19.38 82.0466 19.3604 82.0727C19.3408 82.0989 19.3277 82.1381 19.3277 82.1969C19.3277 82.3015 19.3865 82.3865 19.5107 82.4453C19.6349 82.5041 19.8048 82.5303 20.027 82.5303C20.5172 82.5238 20.7591 82.4061 20.7591 82.1773C20.7525 82.0924 20.7002 82.0205 20.5891 81.9682C20.5107 81.929 20.4584 81.8701 20.4323 81.7852C20.4061 81.7002 20.3865 81.5433 20.3865 81.3145C20.38 81.04 20.4323 80.8962 20.5303 80.8962C20.5957 80.8962 20.6806 80.942 20.7852 81.0335L22.2623 82.3407C22.3473 82.4126 22.4061 82.4649 22.4453 82.4845C22.478 82.5041 22.5238 82.5172 22.576 82.5172C22.6937 82.5172 22.7787 82.4388 22.8179 82.2754C22.8506 82.1447 22.8702 81.9355 22.8636 81.6414C22.8636 81.4257 22.8571 81.2557 22.8571 81.1315L22.8506 80.321C22.8506 80.0138 22.8702 79.8112 22.9159 79.7C22.929 79.6674 22.9421 79.6478 22.9617 79.6281C22.9747 79.6085 23.0074 79.5889 23.0597 79.5693C23.1082 79.5489 23.1468 79.5235 23.1757 79.4938C23.1698 79.4788 23.1659 79.4625 23.1643 79.4451C23.159 79.3787 23.1806 79.3178 23.2293 79.2626L23.2341 79.2572C23.21 79.1656 23.1354 79.103 23.014 79.066C22.9159 79.0399 22.746 79.0268 22.4976 79.0268C22.3015 79.0268 22.1708 79.0333 22.0924 79.0529C21.9028 79.0922 21.8113 79.1837 21.8113 79.3209C21.8113 79.3798 21.8244 79.4255 21.8506 79.4582C21.8767 79.4909 21.9225 79.5236 21.9878 79.5562C22.0662 79.5955 22.1185 79.6478 22.1447 79.7262C22.1708 79.7981 22.1839 79.9419 22.1839 80.1511C22.1904 80.3341 22.1447 80.4256 22.0597 80.4256C22.0074 80.4256 21.929 80.3733 21.8113 80.2752Z" fill="#FCFCFC"/>
</g>
<defs>
<clipPath id="clip0_351_4568">
<rect width="100" height="96.8" fill="white"/>
</clipPath>
</defs>
</svg>
