<svg width="20" height="20" viewBox="0 0 20 20" fill="none" xmlns="http://www.w3.org/2000/svg">
<path d="M5.88111 2.01528L6.85361 1.72215C7.9557 1.38995 9.13316 1.92681 9.60516 2.97667L10.3566 4.6481C10.7588 5.54296 10.5468 6.59463 9.82932 7.26376L8.58407 8.425C8.54766 8.45892 8.52457 8.50475 8.51907 8.55425C8.48207 8.88517 8.70649 9.52967 9.22332 10.4249C9.59924 11.076 9.93941 11.5325 10.229 11.7893C10.4307 11.9683 10.5418 12.0069 10.5891 11.9928L12.2644 11.4807C13.2024 11.1939 14.2189 11.5358 14.7928 12.3313L15.8601 13.8104C16.5318 14.7414 16.411 16.0258 15.5775 16.8153L14.8388 17.5148C14.0418 18.2696 12.9072 18.5508 11.8499 18.2558C9.55482 17.6152 7.49706 15.6783 5.65383 12.4858C3.80804 9.28883 3.16038 6.5351 3.75742 4.22528C4.03065 3.16821 4.83576 2.33038 5.88111 2.01528ZM6.24186 3.21209C5.61465 3.40115 5.13158 3.90385 4.96765 4.53809C4.46544 6.48102 5.03949 8.92175 6.73637 11.8608C8.43099 14.7959 10.2551 16.5128 12.1859 17.0518C12.8203 17.2288 13.5011 17.0601 13.9793 16.6072L14.7179 15.9077C15.0968 15.5488 15.1517 14.965 14.8464 14.5418L13.7792 13.0627C13.5182 12.7012 13.0562 12.5457 12.6298 12.6761L10.9504 13.1895C9.97566 13.4801 9.09091 12.6955 8.14082 11.0499C7.50057 9.941 7.20216 9.08375 7.2768 8.4155C7.31547 8.06927 7.47677 7.74835 7.73154 7.51078L8.97682 6.34957C9.30299 6.04542 9.39932 5.56738 9.21649 5.16063L8.46507 3.4892C8.25054 3.01199 7.71531 2.76796 7.21436 2.91896L6.24186 3.21209Z" fill="#FCFCFC"/>
</svg>
