<svg width="20" height="20" viewBox="0 0 20 20" fill="none" xmlns="http://www.w3.org/2000/svg">
<path d="M5.88111 2.01504L6.85361 1.72191C7.9557 1.38971 9.13316 1.92656 9.60516 2.97642L10.3566 4.64786C10.7588 5.54271 10.5468 6.59439 9.82932 7.26351L8.58407 8.42476C8.54766 8.45867 8.52457 8.50451 8.51907 8.55401C8.48207 8.88492 8.70649 9.52942 9.22332 10.4247C9.59924 11.0758 9.93941 11.5323 10.229 11.7891C10.4307 11.968 10.5418 12.0067 10.5891 11.9926L12.2644 11.4804C13.2024 11.1937 14.2189 11.5356 14.7928 12.331L15.8601 13.8102C16.5318 14.7412 16.411 16.0256 15.5775 16.815L14.8388 17.5145C14.0418 18.2693 12.9072 18.5506 11.8499 18.2555C9.55482 17.6149 7.49706 15.6781 5.65383 12.4856C3.80804 9.28859 3.16038 6.53486 3.75742 4.22503C4.03065 3.16796 4.83576 2.33014 5.88111 2.01504ZM6.24186 3.21185C5.61465 3.40091 5.13158 3.90361 4.96765 4.53785C4.46544 6.48077 5.03949 8.92151 6.73637 11.8606C8.43099 14.7957 10.2551 16.5126 12.1859 17.0515C12.8203 17.2286 13.5011 17.0598 13.9793 16.6069L14.7179 15.9074C15.0968 15.5486 15.1517 14.9648 14.8464 14.5416L13.7792 13.0624C13.5182 12.7009 13.0562 12.5454 12.6298 12.6758L10.9504 13.1893C9.97566 13.4798 9.09091 12.6953 8.14082 11.0497C7.50057 9.94076 7.20216 9.08351 7.2768 8.41526C7.31547 8.06902 7.47677 7.74811 7.73154 7.51053L8.97682 6.34932C9.30299 6.04517 9.39932 5.56714 9.21649 5.16039L8.46507 3.48896C8.25054 3.01175 7.71531 2.76771 7.21436 2.91871L6.24186 3.21185Z" fill="#FCFCFC"/>
</svg>